<svg width="338" height="101" viewBox="0 0 338 101" fill="none" xmlns="http://www.w3.org/2000/svg">
<path d="M131.02 63.0768C130.474 62.6896 129.868 62.496 129.203 62.496C128.126 62.496 127.222 63.0086 126.492 64.0356C125.762 65.0631 125.397 66.2011 125.397 67.45C125.397 68.2593 125.596 68.906 125.993 69.3889C126.391 69.8722 126.943 70.1146 127.652 70.1146C128.753 70.1146 129.616 69.8156 130.244 69.2171L130.208 70.8612C129.528 71.455 128.549 71.7517 127.271 71.7517C126.132 71.7517 125.212 71.3775 124.513 70.6277C123.815 69.8783 123.465 68.906 123.465 67.7086C123.465 65.7748 124.002 64.1517 125.077 62.8396C126.152 61.5284 127.556 60.8724 129.289 60.8724C130.136 60.8724 130.888 61.0112 131.544 61.2888L131.02 63.0768Z" fill="#0370BA"/>
<path d="M137.42 65.2027C136.616 65.2027 135.974 65.5871 135.496 66.355C135.017 67.1235 134.778 68.0079 134.778 69.0085C134.778 69.8373 135.185 70.2509 135.999 70.2509C136.515 70.2509 136.967 69.9329 137.352 69.2959C137.737 68.6593 138.081 67.3421 138.383 65.3466C138.043 65.251 137.722 65.2027 137.42 65.2027ZM139.496 68.8149C139.462 68.9922 139.445 69.1882 139.445 69.4036C139.445 70.4571 139.527 71.1795 139.69 71.5723H138.569C138.234 71.5723 137.985 71.3165 137.822 70.8035C137.21 71.4121 136.446 71.7153 135.532 71.7153C134.699 71.7153 134.054 71.4809 133.597 71.0119C133.14 70.543 132.911 69.8897 132.911 69.0517C132.911 67.5915 133.352 66.3407 134.236 65.2992C135.119 64.2588 136.233 63.7378 137.579 63.7378C138.876 63.7378 139.811 63.8581 140.386 64.0967L139.496 68.8149Z" fill="#0370BA"/>
<path d="M148.094 65.7053C147.668 65.3896 147.292 65.2312 146.967 65.2312C146.502 65.2312 146.077 65.4337 145.692 65.8381C145.307 66.2434 145.064 66.7063 144.963 67.2277L144.152 71.5726H142.35L143.786 63.8811H145.588L145.466 64.5492C146.103 64.0087 146.806 63.7381 147.577 63.7381C147.773 63.7381 148.125 63.7836 148.633 63.8741L148.094 65.7053Z" fill="#0370BA"/>
<path d="M151.967 66.8759C152.279 66.9665 152.616 67.012 152.98 67.012C153.631 67.012 154.182 66.9131 154.632 66.7148C155.082 66.5157 155.307 66.2292 155.307 65.8564C155.307 65.4399 154.852 65.231 153.943 65.231C153.583 65.231 153.217 65.3879 152.844 65.7017C152.47 66.0156 152.178 66.407 151.967 66.8759ZM151.623 68.2326C151.613 68.358 151.609 68.4657 151.609 68.5562C151.609 69.0925 151.767 69.5043 152.086 69.7913C152.404 70.0787 152.846 70.2226 153.411 70.2226C153.712 70.2226 154.06 70.1395 154.452 69.9742C154.845 69.8094 155.153 69.6241 155.379 69.418L155.17 71.3067C154.562 71.5793 153.82 71.7158 152.944 71.7158C151.996 71.7158 151.228 71.4163 150.639 70.8183C150.05 70.2198 149.756 69.3994 149.756 68.3552C149.756 67.0338 150.18 65.9339 151.031 65.0554C151.88 64.177 152.992 63.7382 154.366 63.7382C155.175 63.7382 155.831 63.9086 156.333 64.2508C156.837 64.593 157.088 65.0828 157.088 65.7199C157.088 66.5862 156.713 67.2664 155.964 67.7595C155.214 68.2526 154.292 68.4991 153.196 68.4991C152.659 68.4991 152.135 68.4104 151.623 68.2326Z" fill="#0370BA"/>
<path d="M163.69 65.9854C163.115 65.483 162.588 65.2309 162.11 65.2309C161.813 65.2309 161.556 65.2992 161.338 65.4361C161.12 65.5726 161.011 65.7551 161.011 65.9854C161.011 66.2682 161.271 66.5407 161.79 66.8044C162.309 67.0672 162.708 67.2766 162.986 67.4326C163.264 67.5882 163.491 67.7985 163.668 68.0645C163.845 68.3301 163.934 68.6356 163.934 68.9801C163.934 69.8274 163.617 70.4946 162.983 70.9835C162.348 71.4715 161.538 71.7153 160.552 71.7153C159.709 71.7153 158.886 71.4785 158.082 71.0054L159.03 69.3752C159.628 69.9398 160.215 70.2226 160.788 70.2226C161.152 70.2226 161.453 70.1311 161.69 69.9491C161.927 69.7671 162.045 69.5205 162.045 69.2095C162.045 68.9509 161.821 68.7043 161.371 68.4698C160.92 68.2354 160.523 68.0218 160.178 67.8277C159.834 67.6337 159.572 67.3964 159.392 67.1164C159.213 66.8365 159.122 66.5268 159.122 66.1864C159.122 65.4399 159.421 64.8451 160.017 64.4017C160.612 63.9597 161.344 63.7382 162.211 63.7382C162.804 63.7382 163.575 63.9388 164.523 64.3404L163.69 65.9854Z" fill="#0370BA"/>
<path d="M179.565 62.6898H174.503L174.064 65.1097H177.763L177.468 66.6753H173.77L172.872 71.5722H170.955L172.908 61.0517H179.867L179.565 62.6898Z" fill="#0370BA"/>
<path d="M182.39 68.6061C182.39 69.7027 182.862 70.2511 183.805 70.2511C184.552 70.2511 185.142 69.9052 185.578 69.2129C186.014 68.5216 186.232 67.7016 186.232 66.7535C186.232 65.72 185.76 65.2028 184.817 65.2028C184.085 65.2028 183.497 65.544 183.054 66.2261C182.611 66.9077 182.39 67.7016 182.39 68.6061ZM180.523 68.6924C180.523 67.3042 180.946 66.1309 181.794 65.174C182.641 64.2166 183.714 63.7379 185.011 63.7379C186.002 63.7379 186.766 63.9947 187.302 64.5096C187.838 65.024 188.106 65.7553 188.106 66.7034C188.106 68.1209 187.687 69.3104 186.85 70.2724C186.011 71.2344 184.93 71.7155 183.604 71.7155C182.632 71.7155 181.876 71.4559 181.334 70.9373C180.793 70.4173 180.523 69.6688 180.523 68.6924Z" fill="#0370BA"/>
<path d="M195.785 71.5793H193.99L194.098 71.0189C193.456 71.4836 192.652 71.7153 191.685 71.7153C191.024 71.7153 190.506 71.5268 190.13 71.1484C189.754 70.7705 189.567 70.2468 189.567 69.5759C189.567 69.3655 189.593 69.119 189.646 68.8362L190.572 63.8813H192.396L191.484 68.7647C191.445 68.9709 191.427 69.145 191.427 69.2889C191.427 69.9111 191.775 70.2226 192.475 70.2226C193.045 70.2226 193.522 70.0369 193.907 69.6655C194.293 69.295 194.533 68.8483 194.629 68.3269L195.419 63.8813H197.221L195.785 71.5793Z" fill="#0370BA"/>
<path d="M204.85 71.5724H202.99L203.831 67.0915C203.898 66.7322 203.932 66.4304 203.932 66.1862C203.932 65.5501 203.555 65.2311 202.804 65.2311C202.162 65.2311 201.585 65.5018 201.073 66.0432L200.046 71.5724H198.244L199.328 65.8064C199.348 65.7052 199.357 65.5663 199.357 65.3899C199.357 64.9632 199.288 64.5087 199.149 64.0253L200.908 63.7017L201.073 64.5639C201.705 64.0133 202.497 63.7379 203.45 63.7379C205.03 63.7379 205.82 64.4776 205.82 65.9568C205.82 66.2201 205.786 66.5311 205.72 66.8905L204.85 71.5724Z" fill="#0370BA"/>
<path d="M212.128 65.2527C211.3 65.2527 210.64 65.5568 210.149 66.1645C209.658 66.7732 209.413 67.5458 209.413 68.4846C209.413 69.6528 209.897 70.2364 210.864 70.2364C211.908 70.2364 212.585 69.4034 212.896 67.738L213.241 65.8994C213.011 65.4681 212.64 65.2527 212.128 65.2527ZM214.009 71.5722H212.221L212.358 70.8544C211.96 71.4282 211.302 71.7156 210.383 71.7156C209.483 71.7156 208.779 71.4519 208.271 70.9226C207.764 70.3933 207.51 69.6741 207.51 68.7646C207.51 67.2951 207.919 66.0898 208.738 65.1491C209.557 64.208 210.646 63.7381 212.005 63.7381C212.264 63.7381 212.554 63.7878 212.874 63.889C213.195 63.9888 213.427 64.0993 213.571 64.2191L214.232 60.7286H215.969L214.009 71.5722Z" fill="#0370BA"/>
<path d="M221.53 65.2027C220.726 65.2027 220.085 65.5871 219.606 66.355C219.127 67.1235 218.888 68.0079 218.888 69.0085C218.888 69.8373 219.295 70.2509 220.109 70.2509C220.625 70.2509 221.077 69.9329 221.462 69.2959C221.847 68.6593 222.191 67.3421 222.493 65.3466C222.153 65.251 221.832 65.2027 221.53 65.2027ZM223.606 68.8149C223.572 68.9922 223.555 69.1882 223.555 69.4036C223.555 70.4571 223.637 71.1795 223.8 71.5723H222.679C222.344 71.5723 222.095 71.3165 221.932 70.8035C221.32 71.4121 220.556 71.7153 219.642 71.7153C218.809 71.7153 218.164 71.4809 217.707 71.0119C217.25 70.543 217.021 69.8897 217.021 69.0517C217.021 67.5915 217.462 66.3407 218.346 65.2992C219.229 64.2588 220.343 63.7378 221.689 63.7378C222.986 63.7378 223.922 63.8581 224.496 64.0967L223.606 68.8149Z" fill="#0370BA"/>
<path d="M232.003 65.3251H229.884L229.109 68.7353C229.047 69.0088 229.016 69.2363 229.016 69.4183C229.016 69.9448 229.312 70.2076 229.906 70.2076C230.17 70.2076 230.6 70.0836 231.199 69.8343V71.4501C230.682 71.6274 229.978 71.7156 229.088 71.7156C228.504 71.7156 228.035 71.5336 227.68 71.1696C227.326 70.8061 227.149 70.333 227.149 69.7484C227.149 69.5571 227.17 69.3672 227.213 69.1811L228.083 65.3251H227.192L227.5 63.8811H228.391L228.693 62.3086L230.747 61.5624L230.208 63.8811H232.312L232.003 65.3251Z" fill="#0370BA"/>
<path d="M235.46 61.4114C235.46 61.0905 235.574 60.8236 235.801 60.6104C236.029 60.3978 236.305 60.2905 236.63 60.2905C236.951 60.2905 237.227 60.3978 237.456 60.6104C237.686 60.8236 237.801 61.0905 237.801 61.4114C237.801 61.7271 237.686 61.9931 237.456 62.2081C237.227 62.4235 236.951 62.5312 236.63 62.5312C236.31 62.5312 236.035 62.4249 235.805 62.2123C235.575 61.9992 235.46 61.7322 235.46 61.4114ZM235.992 71.5724H234.167L235.33 65.3249H234.347L234.649 63.8809H237.428L235.992 71.5724Z" fill="#0370BA"/>
<path d="M241.064 68.6061C241.064 69.7027 241.536 70.2511 242.479 70.2511C243.226 70.2511 243.817 69.9052 244.253 69.2129C244.688 68.5216 244.906 67.7016 244.906 66.7535C244.906 65.72 244.435 65.2028 243.492 65.2028C242.759 65.2028 242.171 65.544 241.729 66.2261C241.286 66.9077 241.064 67.7016 241.064 68.6061ZM239.197 68.6924C239.197 67.3042 239.621 66.1309 240.468 65.174C241.315 64.2166 242.388 63.7379 243.685 63.7379C244.676 63.7379 245.44 63.9947 245.976 64.5096C246.512 65.024 246.78 65.7553 246.78 66.7034C246.78 68.1209 246.361 69.3104 245.524 70.2724C244.686 71.2344 243.604 71.7155 242.278 71.7155C241.306 71.7155 240.55 71.4559 240.008 70.9373C239.467 70.4173 239.197 69.6688 239.197 68.6924Z" fill="#0370BA"/>
<path d="M254.596 71.5724H252.736L253.576 67.0915C253.643 66.7322 253.677 66.4304 253.677 66.1862C253.677 65.5501 253.3 65.2311 252.549 65.2311C251.908 65.2311 251.331 65.5018 250.819 66.0432L249.792 71.5724H247.989L249.074 65.8064C249.093 65.7052 249.102 65.5663 249.102 65.3899C249.102 64.9632 249.033 64.5087 248.894 64.0253L250.654 63.7017L250.819 64.5639C251.451 64.0133 252.243 63.7379 253.196 63.7379C254.776 63.7379 255.565 64.4776 255.565 65.9568C255.565 66.2201 255.531 66.5311 255.465 66.8905L254.596 71.5724Z" fill="#0370BA"/>
<path d="M145.389 51.0184H141.696L139.469 39.4408L135.146 51.297H133.783L129.46 39.4408L127.144 51.0184H123.465L127.789 29.5341H129.811L134.457 43.9987L139 29.5341H141.007L145.389 51.0184Z" fill="#0370BA"/>
<path d="M150.299 43.1194C150.299 46.578 151.545 48.3075 154.036 48.3075C155.179 48.3075 156.085 47.858 156.754 46.9592C157.423 46.0603 157.758 44.7807 157.758 43.1194C157.758 39.7101 156.517 38.0048 154.036 38.0048C152.893 38.0048 151.984 38.4542 151.31 39.3531C150.636 40.2524 150.299 41.5074 150.299 43.1194ZM146.488 43.1194C146.488 40.726 147.18 38.7769 148.562 37.2721C149.945 35.7678 151.769 35.0152 154.036 35.0152C156.42 35.0152 158.271 35.7385 159.59 37.1844C160.909 38.6302 161.569 40.6085 161.569 43.1194C161.569 45.6206 160.896 47.6092 159.554 49.0842C158.21 50.5593 156.371 51.2971 154.036 51.2971C151.652 51.2971 149.798 50.5519 148.474 49.0619C147.15 47.5725 146.488 45.5913 146.488 43.1194Z" fill="#0370BA"/>
<path d="M165.13 29.461L168.793 28.5816V46.2262C168.793 48.1609 169.37 49.3137 170.523 49.6847C169.956 50.76 168.989 51.2968 167.621 51.2968C165.96 51.2968 165.13 50.1444 165.13 47.8382V29.461Z" fill="#0370BA"/>
<path d="M173.981 29.461L177.645 28.5816V46.2262C177.645 48.1609 178.221 49.3137 179.375 49.6847C178.808 50.76 177.841 51.2968 176.473 51.2968C174.811 51.2968 173.981 50.1444 173.981 47.8382V29.461Z" fill="#0370BA"/>
<path d="M189.149 53.5244C188.758 54.5696 187.92 55.4369 186.636 56.1259C185.351 56.8144 183.853 57.1589 182.144 57.1589V53.92C184.967 53.92 186.379 53.2115 186.379 51.7949C186.379 50.8571 185.988 49.421 185.207 47.4867L180.297 35.3083H184.093L188.372 46.1528L192.227 35.3083H196.022L189.149 53.5244Z" fill="#0370BA"/>
<path d="M241.526 32.9196V37.946H248.619V41.1849H241.526V47.6187H251.257V51.0038H237.716V29.5344H251.418V32.9196H241.526Z" fill="#0370BA"/>
<path d="M264.666 39.06C263.884 38.4351 263.069 38.1222 262.219 38.1222C260.753 38.1222 259.625 38.5693 258.834 39.463C258.042 40.3568 257.647 41.6392 257.647 43.3102C257.647 46.5733 259.219 48.2048 262.365 48.2048C262.717 48.2048 263.149 48.0999 263.662 47.8895C264.176 47.6797 264.51 47.467 264.666 47.2521V39.06ZM264.666 51.004V50.0513C264.363 50.3837 263.851 50.6739 263.128 50.9232C262.404 51.1726 261.657 51.297 260.886 51.297C258.696 51.297 256.975 50.6033 255.719 49.216C254.464 47.8287 253.836 45.8945 253.836 43.4123C253.836 40.9311 254.557 38.9115 255.998 37.3528C257.439 35.7947 259.244 35.0151 261.413 35.0151C262.605 35.0151 263.689 35.2598 264.666 35.7482V29.4612L268.33 28.5818V51.004H264.666Z" fill="#0370BA"/>
<path d="M280.23 49.8168L281.637 46.4023C283.141 47.4572 284.621 47.9851 286.077 47.9851C288.314 47.9851 289.433 47.2033 289.433 45.64C289.433 44.9073 289.169 44.209 288.642 43.5446C288.114 42.8802 287.027 42.1355 285.381 41.3095C283.734 40.484 282.626 39.8052 282.055 39.2726C281.483 38.7401 281.043 38.1073 280.736 37.3746C280.428 36.6419 280.274 35.8313 280.274 34.9422C280.274 33.2814 280.882 31.9038 282.098 30.8095C283.315 29.7151 284.876 29.1677 286.781 29.1677C289.262 29.1677 291.084 29.632 292.247 30.5601L291.089 33.8427C289.75 32.8853 288.339 32.4066 286.854 32.4066C285.975 32.4066 285.293 32.6388 284.81 33.1026C284.326 33.5669 284.084 34.1705 284.084 34.9124C284.084 36.1437 285.447 37.4238 288.173 38.7522C289.609 39.4556 290.645 40.1033 291.28 40.6938C291.915 41.2854 292.398 41.9744 292.731 42.7604C293.063 43.5469 293.229 44.4235 293.229 45.3911C293.229 47.1304 292.542 48.5618 291.17 49.6849C289.797 50.8085 287.958 51.3703 285.652 51.3703C283.649 51.3703 281.842 50.8526 280.23 49.8168Z" fill="#0370BA"/>
<path d="M306.536 51.0038V41.3316C306.536 40.3645 306.232 39.5877 305.627 39.0013C305.021 38.4154 304.23 38.1219 303.253 38.1219C302.647 38.1219 302.037 38.2858 301.421 38.6131C300.806 38.9405 300.366 39.3142 300.102 39.734V51.0038H296.38V29.461L300.102 28.5816V36.3047C301.05 35.4453 302.354 35.0153 304.015 35.0153C305.979 35.0153 307.503 35.5599 308.587 36.6492C309.672 37.7389 310.214 39.2998 310.214 41.3316V51.0038H306.536Z" fill="#0370BA"/>
<path d="M317.043 29.2265C317.63 29.2265 318.13 29.434 318.545 29.8491C318.96 30.2647 319.168 30.7652 319.168 31.3516C319.168 31.9375 318.96 32.4385 318.545 32.8536C318.13 33.2691 317.63 33.4767 317.043 33.4767C316.457 33.4767 315.956 33.2691 315.541 32.8536C315.126 32.4385 314.918 31.9375 314.918 31.3516C314.918 30.7652 315.126 30.2647 315.541 29.8491C315.956 29.434 316.457 29.2265 317.043 29.2265ZM315.153 51.0038V38.3127H313.145V35.3083H318.86V51.0038H315.153Z" fill="#0370BA"/>
<path d="M323.755 29.461L327.419 28.5816V46.2262C327.419 48.1609 327.995 49.3137 329.148 49.6847C328.581 50.76 327.614 51.2968 326.247 51.2968C324.585 51.2968 323.755 50.1444 323.755 47.8382V29.461Z" fill="#0370BA"/>
<path d="M332.607 29.461L336.271 28.5816V46.2262C336.271 48.1609 336.847 49.3137 338 49.6847C337.433 50.76 336.466 51.2968 335.098 51.2968C333.437 51.2968 332.607 50.1444 332.607 47.8382V29.461Z" fill="#0370BA"/>
<path d="M214.62 48.1762C214.089 48.341 213.581 48.4223 213.099 48.4223C211.998 48.4223 211.158 48.1182 210.578 47.51C209.999 46.9017 209.709 46.1152 209.709 45.1486C209.709 44.473 209.878 43.869 210.216 43.3378C210.554 42.8067 211.158 42.2226 212.027 41.5851L213.62 43.5839L216.402 47.0605C215.745 47.64 215.151 48.0128 214.62 48.1762ZM224.721 41.6519C224.963 41.3316 224.732 40.8756 224.33 40.8756H220.132C219.772 41.3506 220.974 41.8363 220.606 42.3099C219.352 43.927 218.871 44.6801 218.372 45.1198C216.653 42.9566 215.301 41.228 214.316 39.9336L212.606 37.5578C212.008 36.7852 211.558 36.1138 211.259 35.5437C210.959 34.9745 210.81 34.4479 210.81 33.9651C210.81 33.2115 211.037 32.6321 211.491 32.2263C211.945 31.821 212.471 31.6181 213.07 31.6181C213.727 31.6181 214.243 31.8019 214.62 32.1687C214.911 32.4529 215.087 32.8146 215.153 33.2496L214.819 34.2246L218.12 33.232C218.073 32.5453 217.888 31.8994 217.546 31.2996C217.15 30.6041 216.58 30.0492 215.837 29.6337C215.093 29.2181 214.209 29.0106 213.186 29.0106C212.201 29.0106 211.312 29.2135 210.52 29.6188C209.728 30.0246 209.101 30.6041 208.637 31.3571C208.173 32.1107 207.942 32.9798 207.942 33.9651C207.942 34.8533 208.116 35.6551 208.463 36.3697C208.811 37.0847 209.41 37.9924 210.26 39.0932C208.946 40.0204 207.946 40.943 207.261 41.8604C206.575 42.7779 206.232 43.8351 206.232 45.0329C206.232 46.4045 206.546 47.5587 207.174 48.4952C207.801 49.4326 208.617 50.1323 209.622 50.5952C210.626 51.0595 211.708 51.2907 212.867 51.2907C214.799 51.2907 216.605 50.6634 218.285 49.4075L219.473 50.8566H222.95C222.061 49.7948 221.134 48.6452 220.168 47.4087C220.949 46.7847 223.514 43.2454 224.721 41.6519Z" fill="#0370BA"/>
<path d="M107.761 45.9437C106.93 46.0838 106.11 46.0878 105.325 45.9965C104.541 45.906 103.797 45.7254 103.109 45.4868C101.931 45.0779 100.87 44.5285 99.7688 44.0288C96.7828 19.2263 75.6793 1.52588e-05 50.0722 1.52588e-05C22.4183 1.52588e-05 0 22.4183 0 50.0726C0 68.3668 9.81499 84.3625 24.4623 93.0994C25.621 93.7905 26.8095 94.4367 28.0262 95.0346C31.4016 96.6923 34.9902 97.9816 38.7396 98.851C39.0659 98.9268 39.3938 98.9983 39.7224 99.0677C40.6148 99.2559 41.5163 99.4191 42.4254 99.5588C42.9927 99.6461 43.5623 99.7263 44.1359 99.7942C44.7861 99.8712 45.4407 99.9327 46.0981 99.9843C47.4097 100.088 48.7344 100.145 50.0722 100.145C51.9323 100.145 53.7671 100.038 55.5741 99.8406C71.5274 98.0956 85.2255 88.8582 93.0775 75.7202C94.2358 73.7822 95.2707 71.7628 96.1627 69.6668C98.7247 63.6484 100.145 57.0266 100.145 50.0726C100.145 49.9535 100.136 49.8368 100.136 49.7177C102.792 48.9055 105.403 47.8238 107.845 46.3915C108.13 46.224 108.069 45.8917 107.761 45.9437Z" fill="#0370BA"/>
<path d="M39.2915 84.1491C39.2872 84.1049 39.2832 84.0623 39.2789 84.0189C39.2726 84.0943 39.2757 84.1416 39.2915 84.1491Z" fill="#0C5177"/>
<path d="M97.0528 48.0947C94.0879 49.2963 91.063 49.864 88.5192 49.6405C88.0036 49.5968 87.5014 49.5226 86.9826 49.4809C86.6499 49.4543 86.3097 49.4412 85.9592 49.4583C85.7826 49.467 85.6027 49.4821 85.4233 49.5099C85.332 49.5238 85.2403 49.5401 85.1486 49.5587C85.0914 49.5702 84.9045 49.6476 84.8723 49.6059C84.8405 49.5651 85.3145 49.2808 85.3689 49.2467C86.1728 48.7568 86.9623 48.2658 87.8261 47.9351C88.3601 47.737 88.9071 47.5957 89.4569 47.5C90.0067 47.4044 90.5581 47.3528 91.109 47.3428C92.2098 47.3214 93.2781 47.4298 94.2566 47.5909C94.5984 47.6473 94.9283 47.7084 95.2427 47.7704C95.6043 47.8418 95.9703 47.903 96.3442 47.9494C96.5205 47.9712 96.8111 48.0228 97.0576 48.0185C97.1044 48.0177 97.1009 48.0748 97.0528 48.0947ZM81.3163 58.1407C81.7017 58.1066 82.0931 58.0462 82.4897 58.0026C83.2797 57.9125 84.0577 57.8601 84.7266 58.1098C84.7699 58.126 84.8128 58.1431 84.8548 58.1614C85.9346 58.629 86.6416 59.7234 87.9988 59.7905C87.7201 59.856 87.4371 59.9215 87.1549 59.9795C87.0139 60.0081 86.873 60.035 86.7329 60.0585C86.5943 60.0835 86.4566 60.1053 86.32 60.1232C85.7746 60.1938 85.2514 60.1986 84.7909 60.0684C83.9513 59.8322 83.2709 59.4102 82.5727 59.02C81.8732 58.629 81.148 58.2634 80.2012 58.1399C80.5557 58.1864 80.9316 58.1753 81.3163 58.1407ZM63.7545 62.6634C64.1157 62.4792 64.4738 62.2799 64.8382 62.1223C65.1554 61.9826 65.4865 61.8813 65.81 61.8107C66.1343 61.7404 66.4531 61.7043 66.7567 61.7055C67.3641 61.7087 67.9091 61.8635 68.3117 62.2001C68.3625 62.2422 68.4399 62.3065 68.4153 62.3462C68.4046 62.3637 68.3744 62.3768 68.3136 62.3807C68.2148 62.3875 68.1287 62.3557 68.0346 62.3498C67.3689 62.3081 66.6381 62.3839 65.933 62.4335C65.6131 62.4546 65.2963 62.474 64.9748 62.5066C64.6536 62.5391 64.3285 62.5856 63.9998 62.6669C63.8899 62.6943 63.7807 62.7213 63.6818 62.7241C63.6941 62.6912 63.7196 62.6808 63.7545 62.6634ZM55.5381 65.2575C55.471 65.2619 55.548 64.9086 55.6472 64.5363C55.6969 64.3501 55.752 64.1591 55.7969 64.0067C55.8437 63.8559 55.8787 63.7427 55.8886 63.7106C56.0355 63.1969 56.1808 62.686 56.3018 62.1799C56.3709 61.8909 56.432 61.6031 56.4813 61.3169C56.5646 60.8139 56.6222 60.334 56.6397 59.8647C56.6579 59.3967 56.6397 58.943 56.5853 58.5091C56.4761 57.6413 56.2213 56.851 55.8183 56.1761C55.6036 55.8161 55.3241 55.5053 55.0629 55.1849C54.6961 54.7348 53.1853 53.1382 53.4167 52.4149C53.4286 52.378 53.4488 52.3323 53.4901 52.3065C53.5104 52.2934 53.8335 52.5721 54.2221 52.923C54.6112 53.2739 55.0657 53.6971 55.3507 53.973C56.2209 54.8118 57.3228 55.5493 57.7337 56.7561C57.906 57.2765 57.981 57.8767 57.9751 58.5369C57.9703 59.1986 57.879 59.9124 57.7039 60.6456C57.6166 61.0128 57.5066 61.3827 57.3796 61.7575C57.2554 62.1354 57.1105 62.5141 56.9449 62.8904C56.615 63.6435 56.1974 64.3794 55.7199 65.0991C55.673 65.1682 55.6036 65.2516 55.5381 65.2575ZM62.3334 70.2684C62.5025 70.1573 62.6914 70.0644 62.8867 69.9842C63.2773 69.8242 63.693 69.7155 64.0292 69.6135C64.2555 69.5448 64.4817 69.4828 64.7068 69.4301C64.8195 69.4035 64.9315 69.3792 65.0438 69.3578C65.157 69.3376 65.2697 69.3197 65.3817 69.305C65.8302 69.2451 66.2665 69.2308 66.6789 69.2812C67.9072 69.4312 68.8245 70.1271 69.7507 70.7988C70.6756 71.4717 71.6164 72.1259 72.8514 72.2283C72.35 72.3442 71.8332 72.4577 71.3266 72.5641C70.8217 72.6721 70.3156 72.765 69.8166 72.8265C69.3184 72.8888 68.823 72.9166 68.3518 72.9023C67.8817 72.8888 67.426 72.8269 66.9945 72.6983C66.2212 72.4688 65.571 72.0353 64.8719 71.6805C64.4099 71.4462 63.9157 71.2752 63.4119 71.1207C62.9082 70.9659 62.4032 70.8345 61.9082 70.6686C62.0213 70.5138 62.1674 70.382 62.3334 70.2684ZM48.461 74.3155C48.374 74.6641 48.2676 75.0114 48.1505 75.3619C48.0374 75.7152 47.9088 76.0677 47.7651 76.4179C47.7155 76.5393 47.6639 76.6604 47.6103 76.7811C47.8207 76.1551 47.8758 75.5239 47.7671 74.9908C47.619 74.2226 47.2978 73.5768 47.6821 72.5851C47.7714 72.3545 47.8675 72.1243 47.9703 71.894C48.0711 71.6626 48.1894 71.4411 48.3081 71.216C48.2728 71.6364 48.3839 71.981 48.4602 72.3501C48.5749 72.9158 48.6285 73.6526 48.461 74.3155ZM48.3474 85.3496C48.434 85.2789 48.5193 85.2087 48.6082 85.1412C48.698 85.0745 48.7877 85.009 48.8778 84.9443C49.0584 84.8153 49.2402 84.691 49.4228 84.5715C49.7884 84.331 50.1584 84.1075 50.5355 83.8856C50.6403 83.7979 50.7443 83.7133 50.8487 83.6331C50.9559 83.5541 51.0627 83.4787 51.1695 83.4064C51.3822 83.2623 51.5938 83.1313 51.8038 83.0127C52.2238 82.7757 52.6378 82.5887 53.0459 82.4458C53.1479 82.4101 53.2492 82.3771 53.3508 82.3469C53.4536 82.318 53.5564 82.2918 53.6588 82.2675C53.8633 82.2199 54.0661 82.1822 54.267 82.154C54.6687 82.0976 55.0633 82.0782 55.4511 82.0901C56.2264 82.1143 56.9715 82.262 57.692 82.4859C58.4169 82.7125 59.112 83.0119 59.7773 83.3358C60.0861 83.4017 60.3973 83.4565 60.7106 83.5009C61.3374 83.5898 61.9721 83.6403 62.6235 83.6188C62.2278 83.7216 61.832 83.8042 61.4362 83.8701C61.04 83.9356 60.6439 83.9848 60.2477 84.0209C60.0282 84.0134 59.8086 84.0039 59.5895 83.9928C59.3728 83.982 59.1568 83.9713 58.9413 83.9606C58.5066 83.9352 58.0739 83.9098 57.6416 83.8844C57.2073 83.8586 56.7719 83.8348 56.3336 83.8177C56.1145 83.8094 55.895 83.8026 55.6746 83.7986L55.3432 83.7939C55.234 83.7947 55.1248 83.7959 55.0153 83.7967C54.1396 83.8098 53.2496 83.8733 52.3358 84.0337C52.1075 84.0737 51.8777 84.1198 51.6458 84.1726C51.418 84.2274 51.1897 84.2901 50.9591 84.36C50.4982 84.4997 50.0302 84.6696 49.555 84.876C49.3525 84.9447 49.1497 85.0189 48.9465 85.0991C48.8448 85.1396 48.7424 85.1813 48.6412 85.2249C48.5411 85.2698 48.4415 85.3163 48.3415 85.3647L48.3474 85.3496ZM39.736 81.9309C39.7281 81.9829 39.6967 82.1111 39.6531 82.281C39.6102 82.4513 39.5511 82.6601 39.5022 82.8828C39.4002 83.3255 39.2978 83.7959 39.2791 84.0182C39.2831 84.0618 39.2875 84.1047 39.2914 84.1492C39.2756 84.1416 39.2728 84.0936 39.2791 84.0182C39.2351 83.5152 39.1454 83.0432 39.0275 82.5907C38.9667 82.3636 38.9048 82.1449 38.8369 81.9289C38.769 81.7134 38.6956 81.501 38.6194 81.2902C38.3145 80.4475 37.9604 79.6353 37.6996 78.7572C37.6258 78.5067 37.5587 78.2467 37.5055 77.9827C37.4539 77.7199 37.4118 77.45 37.3796 77.1733C37.3153 76.6199 37.2907 76.0395 37.3074 75.4381C37.3253 74.4957 37.4987 73.4597 38.0787 72.4859C38.0366 73.9618 38.3594 75.1849 38.75 76.402C38.9421 77.0073 39.1438 77.6048 39.3152 78.2201C39.4871 78.8354 39.6257 79.4662 39.7142 80.1533C39.7876 80.7476 39.8353 81.2779 39.736 81.9309ZM71.5374 50.2387C71.7311 49.9172 71.9249 49.5964 72.1182 49.2757L72.7104 48.323C73.0721 47.7473 73.4174 47.1618 73.7505 46.5787C74.0859 45.9991 74.4051 45.4152 74.7056 44.8281C74.8561 44.5347 75.0013 44.239 75.1431 43.9452C75.2856 43.6534 75.4233 43.3613 75.5563 43.0683C75.8215 42.4824 76.066 41.8945 76.2879 41.3062C76.5396 40.6401 76.7329 39.9617 76.9985 39.2812C77.2652 38.604 77.6046 37.9236 78.164 37.294C78.1854 37.2694 78.2239 37.2666 78.2295 37.2889C78.2811 37.4881 78.3037 37.7005 78.3116 37.9169C78.343 38.7962 78.2156 39.6985 77.9583 40.5992C77.7011 41.5003 77.3129 42.399 76.8389 43.3073C76.3629 44.212 75.7893 45.1047 75.1649 46.0015C74.8513 46.4473 74.5222 46.8891 74.1812 47.3258C73.8434 47.7672 73.4953 48.2058 73.1388 48.6366C72.9058 48.9184 72.6529 49.1852 72.4 49.4523C72.1487 49.7211 71.901 49.995 71.6728 50.282C71.6013 50.3721 71.4799 50.3332 71.5374 50.2387ZM107.761 45.9435C106.93 46.0841 106.11 46.0876 105.325 45.9967C104.541 45.9058 103.797 45.7256 103.109 45.487C101.931 45.0781 100.87 44.5284 99.7689 44.0286C99.2314 43.7848 98.6867 43.5498 98.1096 43.3545C97.4264 43.1227 96.7063 42.9528 95.9556 42.8405C95.2045 42.7281 94.4197 42.6686 93.6155 42.669C92.8132 42.6713 91.9879 42.7285 91.1487 42.8381C90.3107 42.9488 89.4648 43.1215 88.6117 43.3394C85.2089 44.2211 81.7716 45.9761 78.9774 48.4222C78.8448 48.5373 78.7134 48.6536 78.5828 48.7703L78.1981 49.1292C77.9441 49.3705 77.6904 49.6119 77.4367 49.8529C77.1835 50.0942 76.9298 50.3344 76.6722 50.5714C76.4157 50.8095 76.1589 51.0489 75.8937 51.2796C75.5952 51.5408 75.0633 51.9004 74.4746 52.2966C73.8922 52.7011 73.2547 53.1441 72.7386 53.5581C72.3051 53.8257 71.8804 54.1064 71.454 54.387C71.0281 54.67 70.6018 54.9531 70.175 55.2365C69.7499 55.5231 69.3323 55.8213 68.9111 56.1162C68.4911 56.4135 68.0683 56.7085 67.6523 57.0133C67.2387 57.3222 66.8246 57.6318 66.4106 57.9414C65.997 58.2527 65.5817 58.5639 65.178 58.8894C64.3666 59.5365 63.5473 60.1799 62.7573 60.8615L62.8311 60.7702C63.0193 60.54 63.2102 60.3117 63.4036 60.0851C63.6005 59.862 63.8001 59.6413 64.0014 59.4213C64.4039 58.9819 64.814 58.5472 65.2276 58.1149C65.6504 57.6922 66.0728 57.269 66.4951 56.8462C66.7067 56.6346 66.9183 56.4234 67.1295 56.2119C67.3427 56.0031 67.5562 55.7943 67.769 55.5858C68.1191 55.2413 68.4887 54.9166 68.8686 54.6014L69.1556 54.3664L69.4486 54.1385C69.6455 53.9885 69.8424 53.838 70.0401 53.6876C70.4354 53.3871 70.8312 53.0854 71.2183 52.7718C71.6073 52.4609 71.9919 52.1438 72.3564 51.8004C72.537 51.6309 72.7152 51.4594 72.8907 51.2855C75.6424 48.5782 77.8718 45.4442 79.0706 42.3121C80.2076 39.3313 80.4199 36.4838 81.281 33.5439C81.4183 33.0727 81.5469 32.7349 81.4818 32.5717C81.4171 32.4117 81.1583 32.4237 80.5319 32.6829C80.0722 32.8718 79.5923 33.1326 79.1183 33.4113C78.8813 33.5502 78.6455 33.6939 78.4149 33.8353C78.1846 33.9786 77.9587 34.1191 77.7428 34.2537C76.8325 34.8114 75.9326 35.391 75.0684 36.0277C74.6353 36.3437 74.209 36.6676 73.7914 37.0007C73.3746 37.3361 72.9697 37.687 72.5735 38.0435C70.7006 39.7235 69.1274 41.6416 67.8683 43.6185C67.2446 44.6193 66.696 45.6291 66.2312 46.6446C65.7715 47.6691 65.3876 48.685 65.0903 49.6921C64.8386 50.5607 64.6429 51.4165 64.467 52.266C64.4242 52.4784 64.3813 52.6904 64.3384 52.9024L64.2185 53.5435C64.1384 53.969 64.0582 54.3946 63.9776 54.8221C63.897 55.2369 63.812 55.6533 63.7168 56.0701C63.6211 56.487 63.5227 56.9137 63.4048 57.3353C63.2877 57.758 63.1547 58.1808 63.0003 58.6024C62.9228 58.8132 62.8403 59.024 62.7518 59.234C62.6632 59.4448 62.5727 59.6595 62.4731 59.8719C62.2782 60.2903 62.0594 60.7027 61.8221 61.11C61.703 61.3133 61.5799 61.5157 61.4529 61.7166C61.3247 61.9167 61.1996 62.1231 61.0678 62.3244C60.6399 62.7122 60.212 63.1008 59.7836 63.4891L59.4641 63.7828L59.1509 64.0829L58.5249 64.6859L57.9012 65.2917L57.59 65.5954C57.4868 65.6978 57.3864 65.8026 57.2847 65.9058C56.881 66.323 56.4769 66.7402 56.0728 67.1574C56.3276 66.7998 56.5773 66.4361 56.8183 66.0689C57.0593 65.7017 57.2883 65.3278 57.5154 64.9638C57.9643 64.2306 58.355 63.4855 58.661 62.7519C58.9437 62.1592 59.1814 61.5618 59.3748 60.9659C59.4716 60.6678 59.5578 60.3701 59.6324 60.0732C59.7098 59.779 59.7777 59.488 59.834 59.1974C59.9464 58.6167 60.0159 58.0423 60.0421 57.4814C60.0687 56.9204 60.05 56.3703 59.9956 55.8486C59.7697 53.7542 58.8535 51.9604 57.2129 50.9263C56.3765 50.3991 55.3801 50.0609 54.4996 49.5821C52.8304 48.6731 51.6037 47.242 51 45.4025C50.9416 45.2246 50.626 45.3076 50.4752 45.5422C50.3616 45.7165 50.2529 45.8947 50.1481 46.0749C50.0425 46.2548 49.9401 46.4342 49.8408 46.614C49.6423 46.9737 49.4562 47.3337 49.2831 47.693C49.11 48.053 48.9484 48.4099 48.8028 48.7695C48.6583 49.1324 48.5273 49.4932 48.4098 49.8513C48.1744 50.5674 47.9929 51.272 47.8683 51.9572C47.748 52.6499 47.6857 53.3255 47.6801 53.9718C47.6766 54.47 47.7055 54.9483 47.7611 55.4112C47.8167 55.8744 47.8969 56.3202 48.0021 56.7621C48.2097 57.6417 48.4943 58.4738 48.8039 59.2903C49.114 60.1069 49.4486 60.9076 49.7586 61.7222C49.9131 62.1283 50.0643 62.5415 50.2044 62.9631C50.3446 63.3839 50.4724 63.8118 50.5831 64.25C50.8166 65.1734 50.9567 66.1535 51.0019 67.1796C51.0543 68.213 51.0067 69.2867 50.8447 70.3812C50.7669 70.9484 50.6637 71.5264 50.524 72.104C50.4545 72.393 50.3767 72.6828 50.2894 72.9722C50.2461 73.1167 50.2001 73.2616 50.152 73.4061C50.106 73.5525 50.0588 73.6998 50.0083 73.8463C49.8507 74.3072 49.5919 74.8121 49.3335 75.3119C49.1449 75.5755 48.9496 75.8339 48.7706 76.1042C48.8012 75.9947 48.8317 75.8859 48.8623 75.7775C48.8933 75.6704 48.9222 75.5628 48.95 75.4556C49.0052 75.2416 49.0536 75.0277 49.0949 74.8153C49.1775 74.3897 49.2307 73.969 49.2501 73.5561C49.2835 72.7312 49.2037 71.9647 49.1358 71.1858C49.1025 70.7968 49.0735 70.4062 49.0683 70.008C49.0659 69.8088 49.0695 69.6075 49.0814 69.4039C49.0933 69.1998 49.1128 68.993 49.1481 68.787C49.1775 68.6111 48.9671 68.6036 48.8484 68.7739C48.426 69.4082 47.9112 70.0049 47.409 70.6094C47.2844 70.7615 47.1569 70.9103 47.0386 71.0667C46.9199 71.2228 46.804 71.38 46.6921 71.5387C46.4686 71.8567 46.2626 72.1814 46.0875 72.5185C45.9327 72.817 45.8072 73.1111 45.7068 73.4005C45.6111 73.6951 45.5401 73.9848 45.4889 74.2707C45.3861 74.8419 45.3622 75.3961 45.3785 75.9367C45.3872 76.2079 45.4031 76.473 45.4301 76.7394C45.4575 77.0066 45.4901 77.2709 45.523 77.5329C45.5885 78.0565 45.656 78.5706 45.6862 79.0795C45.7187 79.617 45.7286 80.1605 45.6707 80.7428C45.66 80.8448 45.6195 81 45.5699 81.1747C43.7375 84.3707 42.1877 87.683 40.9535 91.0421C40.9492 90.686 40.9404 90.3299 40.9388 89.9699C40.9361 89.7893 40.942 89.611 40.9508 89.4312C40.9591 89.2514 40.9706 89.0704 40.9869 88.8878C41.0472 88.2157 41.1548 87.5266 41.2977 86.8291C41.4545 86.14 41.6423 85.4409 41.8427 84.7359C41.8932 84.5596 41.944 84.383 41.9948 84.2063L42.1611 83.6823C42.2734 83.3318 42.3858 82.9813 42.4977 82.6316C42.6089 82.281 42.7184 81.9297 42.824 81.5784C42.9336 81.2299 43.0459 80.8857 43.1484 80.5396C43.2401 80.2323 43.3238 79.927 43.3996 79.6234C43.4878 79.2776 43.5612 78.9307 43.6331 78.5924C43.7069 78.2554 43.7704 77.9204 43.8244 77.5881C43.9328 76.9232 44.0018 76.267 44.0336 75.6211C44.1181 74.3469 44.0483 73.1087 43.8383 71.921C43.5584 70.2462 42.8272 68.9203 42.441 67.3091C42.0988 65.8363 41.8134 64.3179 41.632 62.7261C41.5867 62.3025 41.3672 61.3911 41.4223 60.5856C41.437 60.3737 41.1758 60.3939 41.0222 60.6174C40.8194 60.9115 40.6161 61.2061 40.4133 61.4999C40.2108 61.7944 40.0147 62.0965 39.8154 62.3938C39.4197 62.9893 39.0247 63.5839 38.6305 64.1774C38.2486 64.7824 37.8703 65.3866 37.4991 65.9911C37.3145 66.2944 37.128 66.5933 36.9501 66.9002C36.7735 67.2086 36.5992 67.5171 36.4277 67.8259C36.2558 68.1348 36.0867 68.4436 35.9204 68.7532L35.6731 69.2177C35.5913 69.3721 35.5103 69.5269 35.4341 69.6861C35.1253 70.3185 34.8295 70.952 34.5505 71.5884L34.3444 72.0659L34.244 72.3049L34.1491 72.5482C34.0245 72.8729 33.9042 73.1985 33.7887 73.5244C33.5596 74.1778 33.3441 74.8284 33.1639 75.4917C32.9825 76.184 32.8288 76.8728 32.7085 77.5496C32.649 77.8886 32.595 78.2225 32.5549 78.5567C32.518 78.8929 32.4898 79.2252 32.4708 79.5527C32.4327 80.2073 32.4323 80.8416 32.4731 81.4486C32.4831 81.6003 32.4962 81.7503 32.5116 81.8984C32.5283 82.0476 32.5498 82.1961 32.5732 82.3418C32.6196 82.6339 32.6772 82.9182 32.7455 83.1933C33.0444 84.3937 33.639 85.2893 34.3206 86.0832C35.0038 86.8775 35.7846 87.5778 36.4523 88.3598C37.2367 89.276 37.9187 90.2799 38.4443 91.4049C38.7107 91.971 38.9437 92.5704 39.1334 93.2028C39.3295 93.8379 39.4776 94.5052 39.5927 95.2174C39.2573 96.4285 38.9743 97.6417 38.7396 98.8512C39.066 98.9266 39.3938 98.9985 39.7225 99.0676C40.0012 97.6024 40.3406 96.1324 40.7753 94.6692C40.9273 94.514 41.0635 94.2734 41.1933 94.0293C41.3263 93.7863 41.4513 93.539 41.5736 93.3675C41.6308 93.2873 41.6887 93.2087 41.7487 93.1317C41.8102 93.0555 41.8733 92.9805 41.9376 92.9066C42.0654 92.7598 42.198 92.6188 42.3342 92.4851C42.6065 92.2175 42.8931 91.9777 43.1873 91.7713C43.4834 91.5657 43.7803 91.3894 44.0927 91.2584C44.4044 91.127 44.7172 91.0334 45.0252 90.9822C45.8164 90.85 46.54 90.977 47.2443 91.179C47.9485 91.3815 48.6344 91.6586 49.3426 91.8396C49.7852 91.9531 50.2306 92.0262 50.6931 92.0722C51.1544 92.1175 51.6228 92.1306 52.0956 92.1159C52.568 92.1012 53.0447 92.0583 53.5227 91.9912C53.7621 91.9579 54.0014 91.9182 54.2404 91.8729C54.3603 91.8507 54.4798 91.8265 54.5996 91.8015C54.7207 91.7757 54.8426 91.7503 54.9653 91.7245C55.4539 91.6177 55.9418 91.4903 56.4265 91.3458C56.669 91.2735 56.9108 91.1969 57.151 91.1163C57.3911 91.0338 57.6329 90.9504 57.8762 90.8666C58.3649 90.6963 58.8484 90.5117 59.3243 90.3156C59.5625 90.2176 59.7987 90.1164 60.0325 90.0132C60.2679 89.9103 60.5105 89.8091 60.7455 89.7031C61.2163 89.4931 61.6839 89.272 62.1452 89.0394C62.377 88.9223 62.61 88.8048 62.8442 88.6869C63.0785 88.5678 63.3107 88.4455 63.5409 88.3201C63.7712 88.1951 63.9994 88.0664 64.2253 87.935C64.3376 87.8687 64.4504 87.8025 64.5631 87.7358C64.6774 87.6695 64.7922 87.6028 64.9069 87.5361C65.3626 87.2665 65.8084 86.9839 66.2415 86.687C66.459 86.5373 66.677 86.3877 66.8953 86.2372C67.1124 86.0852 67.3264 85.9288 67.5368 85.7692C67.7472 85.6092 67.9544 85.4457 68.1572 85.2781C68.3597 85.1098 68.5717 84.9443 68.7725 84.7712C69.1778 84.4266 69.5657 84.0642 69.9392 83.6863C70.3247 83.3136 70.6927 82.9233 71.0412 82.5133C71.2778 82.2354 71.0932 81.863 70.7625 81.9532C70.3358 82.0691 69.9051 82.1794 69.4736 82.2735C69.258 82.3207 69.0421 82.3636 68.8269 82.4013C68.7193 82.42 68.6118 82.4375 68.5042 82.4533C68.3982 82.47 68.2938 82.4859 68.1886 82.4994C67.349 82.6097 66.5221 82.6125 65.7433 82.4188C65.2217 82.289 64.7433 82.0746 64.286 81.8233C63.8311 81.5733 63.3956 81.2862 62.9566 81.0123C61.7065 80.2327 60.3469 79.5412 58.8666 79.1474C58.4963 79.0489 58.1184 78.9692 57.7329 78.9112C57.3482 78.8544 56.9501 78.8155 56.5563 78.81C55.7632 78.7961 54.9399 78.8854 54.0844 79.1037C53.9006 79.1506 53.7172 79.2034 53.5334 79.2609C53.3492 79.3185 53.1718 79.386 52.9907 79.4562C52.6307 79.5976 52.2706 79.7595 51.9114 79.9389C51.5521 80.1188 51.1937 80.3165 50.8368 80.5296C50.4879 80.7484 50.1409 80.9834 49.7952 81.2307C49.4498 81.4788 49.1064 81.7396 48.7654 82.0111C48.5924 82.1453 48.4316 82.2898 48.2661 82.4327C48.1013 82.5768 47.9378 82.7233 47.7746 82.8713C47.4483 83.1679 47.1248 83.4727 46.8048 83.7832C46.6421 83.9372 46.4916 84.0992 46.3376 84.2595C46.1852 84.4215 46.0327 84.5835 45.8803 84.7454C45.6485 84.9947 45.417 85.2472 45.1872 85.5032C45.0729 85.6318 44.9581 85.7605 44.8438 85.8895C44.7346 86.0225 44.6251 86.1554 44.5155 86.2884C44.0804 86.8239 43.6549 87.3741 43.246 87.9402C44.8343 84.3135 46.7913 80.7821 49.0548 77.4226C49.2998 77.1463 49.5475 76.8728 49.7975 76.604C50.0532 76.3393 50.3156 76.0824 50.58 75.8307C50.8443 75.5799 51.1131 75.3353 51.3858 75.1003C51.5224 74.9828 51.6597 74.8677 51.7987 74.755C51.9404 74.6446 52.0841 74.5374 52.2286 74.4326C52.6438 74.1321 53.0376 73.8642 53.4131 73.647C53.7894 73.4307 54.1435 73.2616 54.4949 73.1726C55.1919 72.9893 55.8247 73.0825 56.4241 73.5962C56.9997 74.0896 57.4038 74.7637 57.9207 75.321C58.5864 76.0391 59.4303 76.5631 60.3287 76.9863C61.1524 77.3737 62.0277 77.6758 62.9355 77.8969C63.3877 78.0061 63.8557 78.1002 64.3301 78.174C64.8041 78.2475 65.2844 78.3015 65.7691 78.336C66.2542 78.3701 66.7433 78.3852 67.2347 78.3805C67.7289 78.3773 68.2339 78.3598 68.7352 78.3201C69.2378 78.2812 69.7407 78.2229 70.2429 78.1447C70.7463 78.0672 71.2623 77.9779 71.7688 77.8644C72.2484 77.7588 72.7224 77.6342 73.1975 77.4952C73.6794 77.3599 74.1578 77.2078 74.6314 77.0391C75.5694 76.6965 76.5305 76.3123 77.4474 75.8561C77.6777 75.741 77.9087 75.6251 78.1409 75.5092C78.3724 75.3905 78.6022 75.2682 78.8297 75.1424C79.0575 75.0162 79.2834 74.8864 79.5069 74.7526C79.7308 74.6172 79.9551 74.4814 80.1802 74.3457C80.6287 74.069 81.0686 73.7776 81.4985 73.472C81.714 73.3171 81.9296 73.1623 82.1451 73.0075C82.3599 72.8503 82.5723 72.6891 82.7819 72.5248C82.947 72.395 82.8795 72.1739 82.6862 72.2068C81.7045 72.3751 80.7272 72.2303 79.8908 71.9313C78.8487 71.557 77.9611 70.9405 77.0668 70.3478C76.2649 69.8175 75.4352 69.2987 74.5782 68.8259C73.7231 68.3547 72.8351 67.9259 71.905 67.5687C71.4402 67.3904 70.9646 67.2297 70.4775 67.0903C70.2338 67.0209 69.9873 66.9566 69.7376 66.8986C69.4879 66.8402 69.239 66.791 68.9849 66.7466C67.9707 66.5707 66.9036 66.4965 65.7794 66.5572C62.9236 66.7287 59.8547 67.8335 56.9846 69.5511C56.621 69.7714 56.2582 70.0001 55.8965 70.2363C55.5357 70.4733 55.1725 70.7142 54.8247 70.9746C54.4738 71.2327 54.1253 71.4975 53.7791 71.7694C53.4346 72.0421 53.0848 72.3152 52.7561 72.6094C52.5604 72.7805 52.3719 72.9551 52.1853 73.1318C54.4516 70.253 56.941 67.5345 59.5979 65.0019C59.8785 64.8431 60.1631 64.7089 60.4521 64.6073C60.7423 64.5065 61.0317 64.433 61.312 64.3862C61.9439 64.281 62.5386 64.2889 63.1174 64.3405C63.4071 64.3671 63.6906 64.4017 63.9772 64.4438C64.2634 64.4854 64.548 64.5291 64.8342 64.5672C65.4059 64.6426 66.0053 64.6903 66.617 64.6494C66.9235 64.6291 67.2311 64.5855 67.5431 64.5144C67.8575 64.4457 68.1735 64.3473 68.4899 64.2111C68.9055 64.0325 69.3025 63.7971 69.6864 63.5288C69.8765 63.3934 70.069 63.2552 70.2584 63.1107C70.4473 62.9666 70.6339 62.817 70.8185 62.6653C71.0043 62.5125 70.9952 62.2712 70.8026 62.2462C69.9892 62.1425 69.478 61.378 68.7531 61.0239C68.4177 60.8607 68.0239 60.7869 67.6011 60.7758C67.1819 60.7682 66.7341 60.823 66.2871 60.9108C65.9561 60.9759 65.6222 61.0592 65.2864 61.1597C64.9513 61.2609 64.6115 61.3756 64.2813 61.5161C63.6163 61.7928 62.9538 62.1338 62.3079 62.5276C63.2754 61.7003 64.2408 60.8734 65.2411 60.091C66.228 59.2931 67.2482 58.5385 68.2636 57.7862C69.3295 57.3976 70.3953 57.1578 71.2957 57.3273C72.5453 57.5675 73.2555 58.5413 74.0851 59.3165C74.8823 60.0636 75.8266 60.6575 76.8401 61.1672C77.3466 61.4217 77.871 61.6551 78.4033 61.875C78.9353 62.0945 79.4831 62.3073 80.0269 62.5113C80.7002 62.7642 81.3826 63.0119 82.0908 63.2028C82.4453 63.2989 82.8033 63.3783 83.1749 63.4418C83.5472 63.5053 83.9279 63.5486 84.3189 63.5653C84.829 63.5867 85.3503 63.5617 85.8762 63.4958C86.4026 63.4295 86.9445 63.3307 87.48 63.1913C87.7483 63.1219 88.0167 63.0437 88.2838 62.9571C88.4176 62.9138 88.551 62.8686 88.684 62.821C88.8178 62.7745 88.9527 62.7269 89.0869 62.6765C89.6228 62.4764 90.1524 62.2454 90.6688 61.9881C90.7855 61.9302 90.9018 61.8706 91.0177 61.8099C91.1348 61.7499 91.2516 61.6896 91.3679 61.6273C91.6001 61.5034 91.8299 61.3748 92.0574 61.2418C92.5139 60.9767 92.9553 60.6892 93.3988 60.3959C94.2872 59.81 95.1299 59.1574 95.9643 58.4897C96.1628 58.3289 96.1172 58.0768 95.8877 58.0752C94.4821 58.0621 93.2181 57.7918 92.003 57.3809C90.7855 56.9681 89.6363 56.4298 88.474 55.8935C87.3129 55.3576 86.137 54.8205 84.8969 54.4462C83.6552 54.0702 82.3278 53.8344 80.8745 53.9202C80.6359 53.9333 80.0662 54.0333 79.3088 54.1762C78.5542 54.3298 77.6142 54.5208 76.6392 54.7189C75.6623 54.9189 74.6512 55.1297 73.739 55.2818C72.8307 55.4386 72.0356 55.5537 71.4886 55.5497C72.0332 55.1929 72.5727 54.8328 73.1229 54.4886C73.6739 54.1449 74.2253 53.8047 74.7771 53.4676C75.2447 53.2739 75.7226 53.112 76.1966 52.9623C76.671 52.8138 77.145 52.6824 77.6181 52.5665C78.5669 52.3375 79.5216 52.1819 80.462 52.062C82.3536 51.8357 84.2169 51.7897 86.0346 51.7901C89.4235 51.7845 93.1701 51.4181 96.9179 50.5749C97.9932 50.332 99.0678 50.0446 100.136 49.7179C102.792 48.9053 105.403 47.824 107.846 46.3917C108.129 46.2238 108.069 45.8919 107.761 45.9435Z" fill="#0C5177"/>
<path d="M49.5061 54.2946C48.453 55.1775 45.6949 57.0591 43.4659 57.653C42.4536 57.9233 41.7736 57.8324 41.5644 57.7502C41.5279 56.5224 46.8949 51.5945 48.1604 50.5441C48.1656 50.5627 48.1707 50.5822 48.1763 50.6024C48.2815 50.9978 48.4149 51.5913 48.5161 52.041C48.5792 52.3213 48.63 52.5472 48.6546 52.6401C48.8607 53.413 49.0127 53.6198 49.4625 54.2343L49.5061 54.2946ZM50.0579 46.8178C50.2369 46.3041 50.5065 45.6618 50.7085 45.3609C51.2151 44.5967 51.5025 44.3613 52.3178 44.0457L52.7299 43.9148C52.7569 43.9076 52.7819 43.9016 52.8045 43.8965C52.4393 44.5201 50.9245 46.0393 50.0579 46.8178ZM54.914 51.1106C55.0617 50.5441 55.3086 49.8049 54.8989 49.9149C54.7096 49.9653 54.186 50.3115 50.9098 53.1847C50.8479 53.2391 50.7923 53.2875 50.7447 53.3296C50.7236 53.3046 50.7002 53.278 50.676 53.2502L50.5986 53.1633C50.4346 52.9438 50.2234 52.3959 50.0468 51.7326C49.8741 51.0856 49.7606 50.4671 49.7276 49.9991L49.6951 49.2718L50.3358 48.6839C53.1979 46.0627 54.7739 44.6186 54.4281 43.3213C54.3805 43.1407 54.2872 42.9843 54.178 42.808C53.7838 42.3277 53.0375 42.1776 52.1785 42.4071L51.7534 42.5436C49.0163 43.5912 48.5165 46.2997 48.1517 48.2778L48.0973 48.568C46.4852 49.9657 42.7692 53.2367 41.5267 54.7559C41.3389 54.9834 39.703 57.0111 40.0246 58.219C40.0905 58.4648 40.2151 58.622 40.3866 58.7875C40.8217 59.2428 41.431 59.4707 42.2059 59.4703C42.6382 59.4703 43.1229 59.3996 43.658 59.2567C45.9521 58.6458 48.8484 56.7951 50.6982 55.3478C51.6414 55.7201 52.4008 55.9829 52.8692 55.8595C53.3464 55.732 53.4444 55.235 53.3615 54.9226C53.2698 54.5781 53.0102 54.4586 52.1372 54.2144C53.2968 53.1589 54.856 51.3337 54.914 51.1106Z" fill="white"/>
<path d="M26.589 32.3398C26.5144 32.518 26.4251 32.7217 26.3222 32.9487C25.4842 34.7867 24.5403 36.7688 23.5181 38.8354C20.8909 43.882 18.6731 49.0946 16.9233 54.3325C16.8522 54.5707 16.8177 54.7755 16.8177 54.9581C16.8177 55.0991 16.8383 55.2253 16.8796 55.3357C16.9677 55.5635 17.1352 55.7771 17.3718 55.9653C17.8422 56.3793 18.3468 56.7088 18.8704 56.9418C19.1471 57.0716 19.3285 57.1105 19.5845 57.0466C19.7707 56.9799 19.9624 56.8283 20.1712 56.5829C20.4888 56.2098 20.9326 55.6116 21.4939 54.797C21.6007 54.6259 21.7186 54.4488 21.8484 54.2654C25.0178 49.6995 28.9021 44.9022 33.3934 40.0052C37.8823 35.1094 42.3577 30.9333 46.6882 27.5961C46.9288 27.4265 46.9982 27.4075 47.0062 27.4051C47.0876 27.3876 47.1157 27.3868 47.0987 27.3972C46.9069 28.1859 45.7303 30.7738 43.6018 35.0912C41.4919 39.3697 39.0851 44.196 36.45 49.4356C34.5252 53.2528 32.8023 56.6957 31.33 59.6666C29.8525 62.6478 28.8704 64.7037 28.4051 65.7902C28.3448 65.9712 28.3142 66.1343 28.3142 66.2741C28.3142 66.44 28.3507 66.5837 28.4285 66.7084C28.5663 66.908 28.7386 67.0609 28.9371 67.1593C29.1292 67.2617 29.3773 67.3641 29.6746 67.4654C29.9862 67.5714 30.2332 67.623 30.4293 67.623L30.5186 67.6186C30.7095 67.5773 30.8917 67.4618 31.0604 67.2744C31.2152 67.1014 31.3899 66.8175 31.5943 66.4075L49.02 31.3779C49.2784 30.8377 49.4324 30.3474 49.4781 29.9199C49.5218 29.5074 49.5444 29.1573 49.5444 28.8794C49.5444 28.7627 49.5384 28.6532 49.5273 28.5543C49.4697 27.806 49.1427 27.1082 48.5543 26.4802C47.9589 25.845 47.3222 25.5227 46.6612 25.5227C46.5576 25.5227 46.4472 25.5279 46.2964 25.5473C44.1214 26.2063 41.2387 28.2844 37.7275 31.7245C34.231 35.1507 30.7984 38.8862 27.5246 42.8265C24.7661 46.1471 22.6177 48.8933 21.1188 51.0151C21.596 49.7237 22.291 48.0966 23.1949 46.1542C24.4327 43.4942 25.7204 40.8031 27.0229 38.1558C28.0891 35.9788 28.947 34.192 29.5754 32.8364C29.7036 32.5212 29.7691 32.1834 29.7691 31.8349C29.7691 31.5459 29.7227 31.2378 29.6313 30.9179C29.44 30.243 29.1375 29.6436 28.7314 29.1367C28.3114 28.6119 27.8708 28.3082 27.4353 28.2379C27.1499 28.1716 26.8959 28.2483 26.693 28.39C26.4874 28.5103 26.2627 28.7159 26.009 29.0164C21.2438 34.4759 16.0988 41.5189 10.7151 49.9492C7.46951 55.032 4.58634 59.8512 2.07831 64.3706C2.46138 65.6584 2.89328 66.9247 3.3748 68.1668C10.392 55.9585 18.1753 43.9324 26.562 32.3743C26.5711 32.3628 26.5803 32.3509 26.589 32.3398Z" fill="white"/>
<path d="M82.158 27.3191L81.9127 27.073C81.8575 27.017 81.7872 26.9594 81.7062 26.9011C81.5951 26.8149 81.4919 26.7514 81.3891 26.7066C81.0897 26.576 80.9183 26.6212 80.6753 26.7752C80.3831 26.9519 79.9981 27.3993 79.4983 28.1432C74.3524 29.4778 69.7012 31.3078 65.6708 33.5832C64.5775 34.2303 63.832 34.7757 63.395 35.2477C62.9909 35.6633 62.8023 35.9801 62.8023 36.2441C62.8023 36.2917 62.8098 36.3362 62.8241 36.3759C62.8487 36.5263 62.9559 36.8086 63.416 36.8086C63.4795 36.8086 63.5506 36.8018 63.6375 36.7871C63.9372 36.7181 64.4517 36.5108 65.2099 36.154C65.3723 36.0789 65.5517 35.9972 65.7478 35.9094C69.5956 34.1612 73.4807 32.6503 77.3043 31.415C73.2921 37.2972 69.2673 43.534 65.3365 49.9597C63.4204 50.4328 61.7587 50.9179 60.3959 51.3999C59.44 51.7448 58.7556 52.0199 58.3082 52.2386C58.0538 52.3546 57.8577 52.4657 57.7084 52.5785C57.5357 52.7102 57.4266 52.8829 57.3845 53.0913C57.371 53.16 57.3646 53.2219 57.3646 53.2755C57.3646 53.4355 57.3893 53.6014 57.4373 53.769C57.5064 54.0107 57.5881 54.2215 57.6775 54.3866C57.8482 54.7423 58.0173 54.9305 58.1987 54.9745C58.2523 54.9916 58.3134 54.9996 58.3864 54.9996L58.4932 54.9984C58.581 54.9857 58.7064 54.9523 58.8997 54.8868C59.0279 54.834 59.182 54.7757 59.3705 54.7086C59.6952 54.5788 60.1013 54.4271 60.5884 54.2537C61.4093 53.9619 62.3251 53.6598 63.3164 53.3537C60.1323 58.7564 57.3289 64.1687 54.9797 69.4487C54.3473 70.9112 53.9484 71.9762 53.7975 72.6018C53.7034 72.896 53.6578 73.1342 53.6578 73.3295V73.3779C53.6578 73.597 53.7447 73.809 53.917 74.0091C54.0754 74.1893 54.2802 74.3854 54.5247 74.5918C54.7677 74.7959 54.9987 74.9805 55.2282 75.1519L55.3107 75.2059C55.5136 75.3731 55.6779 75.4794 55.8125 75.5303C55.9522 75.5831 56.0539 75.6085 56.1329 75.6085C56.2913 75.6085 56.4588 75.5469 56.6295 75.429C60.3685 72.9226 65.5644 70.3931 72.0723 67.9121C78.5777 65.4326 84.7776 64.05 90.4943 63.8015C91.3251 63.7852 91.4275 63.7265 91.4811 63.6955C91.5331 63.6657 91.6915 63.5768 91.6915 63.4168C91.6915 63.2894 91.6097 63.1794 91.4454 63.0873C91.2735 62.9952 91.0409 62.9051 90.7332 62.8115C90.4375 62.7225 90.158 62.6547 89.8933 62.609C88.7528 62.4673 87.5579 62.395 86.3428 62.395C82.3354 62.395 77.8013 63.1564 72.865 64.6573C66.4468 66.608 61.1636 69.0006 57.1598 71.769C57.188 71.7182 57.2205 71.6614 57.2587 71.5959C57.4349 71.2982 57.6517 70.8869 57.9033 70.3737C60.8901 64.1389 64.2306 57.9871 67.8323 52.0838C70.4379 51.3911 73.0532 50.8 75.6076 50.3269C78.1665 49.8513 80.3561 49.6 82.1135 49.5778C82.6415 49.5778 83.1103 49.5889 83.5116 49.6111C83.8185 49.6214 84.0658 49.6274 84.2528 49.6274C84.4568 49.6274 84.882 49.6274 84.882 49.3245C84.882 49.2027 84.7938 49.1137 84.7466 49.0804C84.6462 48.947 84.3937 48.7334 83.3509 48.4067C81.7046 47.9971 79.5444 47.8784 77.0554 48.059C74.6879 48.2122 72.2203 48.5322 69.7135 49.0081C72.2164 44.9535 74.8359 40.7945 77.5043 36.6399C78.8802 34.4831 80.2676 32.3054 81.6717 30.105C86.0812 28.895 90.4689 28.0495 94.7827 27.5604C94.4608 26.9221 94.1261 26.2925 93.7784 25.6705C90.2156 25.9853 86.375 26.5819 82.2898 27.4644C82.2437 27.4155 82.2001 27.3671 82.158 27.3191Z" fill="white"/>
</svg>
