<?xml version="1.0" encoding="utf-8"?>
<svg version="1.1" id="Layer_1" xmlns="http://www.w3.org/2000/svg" x="0px" y="0px"
	 viewBox="0 0 283 64" style="enable-background:new 0 0 283 64;" xml:space="preserve">
<g>
	<path d="M77.7,47.8c1.8-0.2,3-0.5,3.6-1c0.5-0.5,0.8-1.6,0.8-3.5V21.2c0-1.8-0.3-2.9-0.8-3.5s-1.7-0.9-3.6-1v-0.9h14v0.9
		c-1.8,0.1-3.1,0.4-3.7,0.9c-0.6,0.5-0.9,1.6-0.9,3.2v23.9c0,0.5,0.1,1,0.3,1.3s0.6,0.5,1.2,0.6c0.4,0,0.8,0.1,1.2,0.1
		c0.4,0,1.2,0,2.3,0c4.4,0,7.4-0.4,9-1.1s3.1-2.6,4.5-5.6h1.3l-2.4,8.6H77.7V47.8z"/>
	<path d="M123.9,19.5c3.1-2.9,6.8-4.4,11.3-4.4c4.5,0,8.2,1.5,11.3,4.4c3.3,3.2,5,7.4,5,12.7c0,5.4-1.7,9.7-5.1,12.8
		c-3.1,2.8-6.8,4.3-11.1,4.3c-4.7,0-8.5-1.6-11.6-4.7c-3.1-3.2-4.7-7.3-4.7-12.4C118.9,27,120.5,22.7,123.9,19.5z M127.6,43.9
		c2.1,2.5,4.6,3.7,7.6,3.7c2.9,0,5.4-1.2,7.5-3.6c2.1-2.4,3.1-6.3,3.1-11.7c0-5.4-1.1-9.3-3.2-11.7c-2.1-2.4-4.6-3.6-7.5-3.6
		c-3,0-5.5,1.2-7.6,3.7c-2.1,2.5-3.1,6.4-3.1,11.6C124.5,37.5,125.5,41.4,127.6,43.9z"/>
	<path d="M187.2,16.1c1.9,0.5,2.9,0.8,3.2,0.8c0.7,0,1.2-0.1,1.5-0.4s0.6-0.7,0.8-1.2h1.1l0.4,10.4H193c-1-2.4-2.1-4.2-3.2-5.4
		c-2-2.1-4.5-3.1-7.6-3.1c-3.2,0-6,1.2-8.4,3.6c-2.4,2.4-3.6,6.4-3.6,11.9c0,4.6,1.2,8.1,3.6,10.7s5.4,3.9,8.9,3.9
		c0.6,0,1.3-0.1,2.1-0.2c0.8-0.1,1.6-0.3,2.3-0.5c1.2-0.4,1.9-0.7,2.2-1s0.4-0.7,0.4-1.2v-7.9c0-1.9-0.3-3.1-0.8-3.6
		c-0.5-0.5-1.7-0.8-3.6-0.9v-0.9h12.7V32c-1.2,0.1-2,0.3-2.4,0.6c-0.7,0.5-1,1.6-1,3.2v9.8c0,0.6-1.4,1.4-4.3,2.3
		c-2.9,1-5.6,1.5-8.2,1.5c-4.8,0-8.9-1.4-12.3-4.2c-3.7-3.1-5.5-7.3-5.5-12.6c0-4.6,1.5-8.6,4.4-11.9c3.2-3.6,7.5-5.5,12.8-5.5
		C183.5,15.3,185.4,15.5,187.2,16.1z"/>
	<path d="M215.4,19.5c3.1-2.9,6.8-4.4,11.3-4.4c4.5,0,8.2,1.5,11.3,4.4c3.3,3.2,5,7.4,5,12.7c0,5.4-1.7,9.7-5.1,12.8
		c-3.1,2.8-6.8,4.3-11.1,4.3c-4.7,0-8.5-1.6-11.6-4.7c-3.1-3.2-4.7-7.3-4.7-12.4C210.4,27,212.1,22.7,215.4,19.5z M219.1,43.9
		c2.1,2.5,4.6,3.7,7.6,3.7c2.9,0,5.4-1.2,7.5-3.6c2.1-2.4,3.1-6.3,3.1-11.7c0-5.4-1.1-9.3-3.2-11.7c-2.1-2.4-4.6-3.6-7.5-3.6
		c-3,0-5.5,1.2-7.6,3.7c-2.1,2.5-3.1,6.4-3.1,11.6C216.1,37.5,217.1,41.4,219.1,43.9z"/>
</g>
<circle cx="38.8" cy="32" r="23"/>
</svg>
