<?xml version="1.0" encoding="utf-8"?>
<!-- Generator: Adobe Illustrator 26.5.0, SVG Export Plug-In . SVG Version: 6.00 Build 0)  -->
<svg version="1.1" id="Layer_1" xmlns="http://www.w3.org/2000/svg" xmlns:xlink="http://www.w3.org/1999/xlink" x="0px" y="0px"
	 viewBox="0 0 576 437.4" style="enable-background:new 0 0 576 437.4;" xml:space="preserve">
<style type="text/css">
	.st0{fill:#0370BA;}
	.st1{fill:#0C5177;}
	.st2{fill:#FFFFFF;}
</style>
<g>
	<path class="st0" d="M432.9,154.8c-2.1,0.4-4.2,0.4-6.1,0.1c-2-0.2-3.8-0.7-5.6-1.3c-3-1-5.6-2.4-8.4-3.7
		c-7.5-62.5-60.7-110.9-125.2-110.9c-69.7,0-126.1,56.5-126.1,126.1c0,46.1,24.7,86.4,61.6,108.4c2.9,1.7,5.9,3.4,9,4.9
		c8.5,4.2,17.5,7.4,27,9.6c0.8,0.2,1.6,0.4,2.5,0.5c2.2,0.5,4.5,0.9,6.8,1.2c1.4,0.2,2.9,0.4,4.3,0.6c1.6,0.2,3.3,0.3,4.9,0.5
		c3.3,0.3,6.6,0.4,10,0.4c4.7,0,9.3-0.3,13.9-0.8c40.2-4.4,74.7-27.7,94.5-60.8c2.9-4.9,5.5-10,7.8-15.2c6.5-15.2,10-31.8,10-49.4
		c0-0.3,0-0.6,0-0.9c6.7-2,13.3-4.8,19.4-8.4C433.9,155.5,433.7,154.7,432.9,154.8z"/>
	<g>
		<path class="st1" d="M260.5,251.1c0-0.1,0-0.2,0-0.3C260.4,250.9,260.4,251,260.5,251.1z"/>
		<path class="st1" d="M432.9,154.8c-2.1,0.4-4.2,0.4-6.1,0.1c-2-0.2-3.8-0.7-5.6-1.3c-3-1-5.6-2.4-8.4-3.7
			c-1.4-0.6-2.7-1.2-4.2-1.7c-1.7-0.6-3.5-1-5.4-1.3c-1.9-0.3-3.9-0.4-5.9-0.4c-2,0-4.1,0.2-6.2,0.4c-2.1,0.3-4.2,0.7-6.4,1.3
			c-8.6,2.2-17.2,6.6-24.3,12.8c-0.3,0.3-0.7,0.6-1,0.9l-1,0.9c-0.6,0.6-1.3,1.2-1.9,1.8c-0.6,0.6-1.3,1.2-1.9,1.8
			c-0.6,0.6-1.3,1.2-2,1.8c-0.8,0.7-2.1,1.6-3.6,2.6c-1.5,1-3.1,2.1-4.4,3.2c-1.1,0.7-2.2,1.4-3.2,2.1c-1.1,0.7-2.1,1.4-3.2,2.1
			c-1.1,0.7-2.1,1.5-3.2,2.2c-1.1,0.7-2.1,1.5-3.2,2.3c-1,0.8-2.1,1.6-3.1,2.3c-1,0.8-2.1,1.6-3.1,2.4c-2,1.6-4.1,3.3-6.1,5l0.2-0.2
			c0.5-0.6,1-1.2,1.4-1.7c0.5-0.6,1-1.1,1.5-1.7c1-1.1,2-2.2,3.1-3.3c1.1-1.1,2.1-2.1,3.2-3.2c0.5-0.5,1.1-1.1,1.6-1.6
			c0.5-0.5,1.1-1.1,1.6-1.6c0.9-0.9,1.8-1.7,2.8-2.5l0.7-0.6l0.7-0.6c0.5-0.4,1-0.8,1.5-1.1c1-0.8,2-1.5,3-2.3
			c1-0.8,1.9-1.6,2.9-2.4c0.5-0.4,0.9-0.9,1.3-1.3c6.9-6.8,12.5-14.7,15.6-22.6c2.9-7.5,3.4-14.7,5.6-22.1c0.3-1.2,0.7-2,0.5-2.4
			c-0.2-0.4-0.8-0.4-2.4,0.3c-1.2,0.5-2.4,1.1-3.6,1.8c-0.6,0.4-1.2,0.7-1.8,1.1c-0.6,0.4-1.1,0.7-1.7,1.1c-2.3,1.4-4.6,2.9-6.7,4.5
			c-1.1,0.8-2.2,1.6-3.2,2.5c-1,0.8-2.1,1.7-3.1,2.6c-4.7,4.2-8.7,9.1-11.9,14c-1.6,2.5-3,5.1-4.1,7.6c-1.2,2.6-2.1,5.1-2.9,7.7
			c-0.6,2.2-1.1,4.3-1.6,6.5c-0.1,0.5-0.2,1.1-0.3,1.6l-0.3,1.6c-0.2,1.1-0.4,2.1-0.6,3.2c-0.2,1-0.4,2.1-0.7,3.1
			c-0.2,1-0.5,2.1-0.8,3.2c-0.3,1.1-0.6,2.1-1,3.2c-0.2,0.5-0.4,1.1-0.6,1.6c-0.2,0.5-0.5,1.1-0.7,1.6c-0.5,1.1-1,2.1-1.6,3.1
			c-0.3,0.5-0.6,1-0.9,1.5c-0.3,0.5-0.6,1-1,1.5c-1.1,1-2.2,2-3.2,2.9l-0.8,0.7l-0.8,0.8l-1.6,1.5l-1.6,1.5l-0.8,0.8
			c-0.3,0.3-0.5,0.5-0.8,0.8c-1,1.1-2,2.1-3.1,3.2c0.6-0.9,1.3-1.8,1.9-2.7c0.6-0.9,1.2-1.9,1.8-2.8c1.1-1.8,2.1-3.7,2.9-5.6
			c0.7-1.5,1.3-3,1.8-4.5c0.2-0.8,0.5-1.5,0.6-2.2c0.2-0.7,0.4-1.5,0.5-2.2c0.3-1.5,0.5-2.9,0.5-4.3c0.1-1.4,0-2.8-0.1-4.1
			c-0.6-5.3-2.9-9.8-7-12.4c-2.1-1.3-4.6-2.2-6.8-3.4c-4.2-2.3-7.3-5.9-8.8-10.5c-0.1-0.4-0.9-0.2-1.3,0.4c-0.3,0.4-0.6,0.9-0.8,1.3
			c-0.3,0.5-0.5,0.9-0.8,1.4c-0.5,0.9-1,1.8-1.4,2.7c-0.4,0.9-0.8,1.8-1.2,2.7c-0.4,0.9-0.7,1.8-1,2.7c-0.6,1.8-1,3.6-1.4,5.3
			c-0.3,1.7-0.5,3.4-0.5,5.1c0,1.3,0.1,2.5,0.2,3.6c0.1,1.2,0.3,2.3,0.6,3.4c0.5,2.2,1.2,4.3,2,6.4c0.8,2.1,1.6,4.1,2.4,6.1
			c0.4,1,0.8,2.1,1.1,3.1c0.4,1.1,0.7,2.1,1,3.2c0.6,2.3,0.9,4.8,1.1,7.4c0.1,2.6,0,5.3-0.4,8.1c-0.2,1.4-0.5,2.9-0.8,4.3
			c-0.2,0.7-0.4,1.5-0.6,2.2c-0.1,0.4-0.2,0.7-0.3,1.1c-0.1,0.4-0.2,0.7-0.4,1.1c-0.4,1.2-1,2.4-1.7,3.7c-0.5,0.7-1,1.3-1.4,2
			c0.1-0.3,0.2-0.6,0.2-0.8c0.1-0.3,0.2-0.5,0.2-0.8c0.1-0.5,0.3-1.1,0.4-1.6c0.2-1.1,0.3-2.1,0.4-3.2c0.1-2.1-0.1-4-0.3-6
			c-0.1-1-0.2-2-0.2-3c0-0.5,0-1,0-1.5c0-0.5,0.1-1,0.2-1.6c0.1-0.4-0.5-0.5-0.8,0c-1.1,1.6-2.4,3.1-3.6,4.6
			c-0.3,0.4-0.6,0.8-0.9,1.2c-0.3,0.4-0.6,0.8-0.9,1.2c-0.6,0.8-1.1,1.6-1.5,2.5c-0.4,0.8-0.7,1.5-1,2.2c-0.2,0.7-0.4,1.5-0.5,2.2
			c-0.3,1.4-0.3,2.8-0.3,4.2c0,0.7,0.1,1.4,0.1,2c0.1,0.7,0.2,1.3,0.2,2c0.2,1.3,0.3,2.6,0.4,3.9c0.1,1.4,0.1,2.7,0,4.2
			c0,0.3-0.1,0.6-0.3,1.1c-4.6,8.1-8.5,16.4-11.6,24.9c0-0.9,0-1.8,0-2.7c0-0.5,0-0.9,0-1.4c0-0.5,0.1-0.9,0.1-1.4
			c0.2-1.7,0.4-3.4,0.8-5.2c0.4-1.7,0.9-3.5,1.4-5.3c0.1-0.4,0.3-0.9,0.4-1.3l0.4-1.3c0.3-0.9,0.6-1.8,0.8-2.6
			c0.3-0.9,0.6-1.8,0.8-2.7c0.3-0.9,0.6-1.7,0.8-2.6c0.2-0.8,0.4-1.5,0.6-2.3c0.2-0.9,0.4-1.7,0.6-2.6c0.2-0.8,0.3-1.7,0.5-2.5
			c0.3-1.7,0.4-3.3,0.5-5c0.2-3.2,0-6.3-0.5-9.3c-0.7-4.2-2.5-7.6-3.5-11.6c-0.9-3.7-1.6-7.5-2-11.5c-0.1-1.1-0.7-3.4-0.5-5.4
			c0-0.5-0.6-0.5-1,0.1c-0.5,0.7-1,1.5-1.5,2.2c-0.5,0.7-1,1.5-1.5,2.3c-1,1.5-2,3-3,4.5c-1,1.5-1.9,3-2.9,4.6
			c-0.5,0.8-0.9,1.5-1.4,2.3c-0.4,0.8-0.9,1.6-1.3,2.3c-0.4,0.8-0.9,1.6-1.3,2.3l-0.6,1.2c-0.2,0.4-0.4,0.8-0.6,1.2
			c-0.8,1.6-1.5,3.2-2.2,4.8l-0.5,1.2l-0.3,0.6l-0.2,0.6c-0.3,0.8-0.6,1.6-0.9,2.5c-0.6,1.6-1.1,3.3-1.6,5c-0.5,1.7-0.8,3.5-1.1,5.2
			c-0.1,0.9-0.3,1.7-0.4,2.5c-0.1,0.8-0.2,1.7-0.2,2.5c-0.1,1.6-0.1,3.2,0,4.8c0,0.4,0.1,0.8,0.1,1.1c0,0.4,0.1,0.7,0.2,1.1
			c0.1,0.7,0.3,1.5,0.4,2.1c0.8,3,2.3,5.3,4,7.3c1.7,2,3.7,3.8,5.4,5.7c2,2.3,3.7,4.8,5,7.7c0.7,1.4,1.3,2.9,1.7,4.5
			c0.5,1.6,0.9,3.3,1.2,5.1c-0.8,3.1-1.6,6.1-2.1,9.2c0.8,0.2,1.6,0.4,2.5,0.5c0.7-3.7,1.6-7.4,2.7-11.1c0.4-0.4,0.7-1,1.1-1.6
			c0.3-0.6,0.7-1.2,1-1.7c0.1-0.2,0.3-0.4,0.4-0.6c0.2-0.2,0.3-0.4,0.5-0.6c0.3-0.4,0.7-0.7,1-1.1c0.7-0.7,1.4-1.3,2.1-1.8
			c0.7-0.5,1.5-1,2.3-1.3c0.8-0.3,1.6-0.6,2.3-0.7c2-0.3,3.8,0,5.6,0.5c1.8,0.5,3.5,1.2,5.3,1.7c1.1,0.3,2.2,0.5,3.4,0.6
			c1.2,0.1,2.3,0.1,3.5,0.1c1.2,0,2.4-0.1,3.6-0.3c0.6-0.1,1.2-0.2,1.8-0.3c0.3-0.1,0.6-0.1,0.9-0.2c0.3-0.1,0.6-0.1,0.9-0.2
			c1.2-0.3,2.5-0.6,3.7-1c0.6-0.2,1.2-0.4,1.8-0.6c0.6-0.2,1.2-0.4,1.8-0.6c1.2-0.4,2.4-0.9,3.6-1.4c0.6-0.2,1.2-0.5,1.8-0.8
			c0.6-0.3,1.2-0.5,1.8-0.8c1.2-0.5,2.4-1.1,3.5-1.7c0.6-0.3,1.2-0.6,1.8-0.9c0.6-0.3,1.2-0.6,1.8-0.9c0.6-0.3,1.2-0.6,1.7-1
			c0.3-0.2,0.6-0.3,0.9-0.5c0.3-0.2,0.6-0.3,0.9-0.5c1.1-0.7,2.3-1.4,3.4-2.1c0.5-0.4,1.1-0.8,1.6-1.1c0.5-0.4,1.1-0.8,1.6-1.2
			c0.5-0.4,1.1-0.8,1.6-1.2c0.5-0.4,1-0.8,1.5-1.3c1-0.9,2-1.8,2.9-2.7c1-0.9,1.9-1.9,2.8-3c0.6-0.7,0.1-1.6-0.7-1.4
			c-1.1,0.3-2.2,0.6-3.2,0.8c-0.5,0.1-1.1,0.2-1.6,0.3c-0.3,0-0.5,0.1-0.8,0.1c-0.3,0-0.5,0.1-0.8,0.1c-2.1,0.3-4.2,0.3-6.2-0.2
			c-1.3-0.3-2.5-0.9-3.7-1.5c-1.1-0.6-2.2-1.4-3.3-2c-3.1-2-6.6-3.7-10.3-4.7c-0.9-0.2-1.9-0.4-2.9-0.6c-1-0.1-2-0.2-3-0.3
			c-2,0-4.1,0.2-6.2,0.7c-0.5,0.1-0.9,0.3-1.4,0.4c-0.5,0.1-0.9,0.3-1.4,0.5c-0.9,0.4-1.8,0.8-2.7,1.2c-0.9,0.5-1.8,1-2.7,1.5
			c-0.9,0.6-1.8,1.1-2.6,1.8c-0.9,0.6-1.7,1.3-2.6,2c-0.4,0.3-0.8,0.7-1.3,1.1c-0.4,0.4-0.8,0.7-1.2,1.1c-0.8,0.7-1.6,1.5-2.4,2.3
			c-0.4,0.4-0.8,0.8-1.2,1.2c-0.4,0.4-0.8,0.8-1.2,1.2c-0.6,0.6-1.2,1.3-1.7,1.9c-0.3,0.3-0.6,0.6-0.9,1c-0.3,0.3-0.6,0.7-0.8,1
			c-1.1,1.3-2.2,2.7-3.2,4.2c4-9.1,8.9-18,14.6-26.5c0.6-0.7,1.2-1.4,1.9-2.1c0.6-0.7,1.3-1.3,2-1.9c0.7-0.6,1.3-1.2,2-1.8
			c0.3-0.3,0.7-0.6,1-0.9c0.4-0.3,0.7-0.5,1.1-0.8c1-0.8,2-1.4,3-2c0.9-0.5,1.8-1,2.7-1.2c1.8-0.5,3.3-0.2,4.9,1.1
			c1.4,1.2,2.5,2.9,3.8,4.3c1.7,1.8,3.8,3.1,6.1,4.2c2.1,1,4.3,1.7,6.6,2.3c1.1,0.3,2.3,0.5,3.5,0.7c1.2,0.2,2.4,0.3,3.6,0.4
			c1.2,0.1,2.5,0.1,3.7,0.1c1.2,0,2.5-0.1,3.8-0.2c1.3-0.1,2.5-0.2,3.8-0.4c1.3-0.2,2.6-0.4,3.8-0.7c1.2-0.3,2.4-0.6,3.6-0.9
			c1.2-0.3,2.4-0.7,3.6-1.1c2.4-0.9,4.8-1.8,7.1-3c0.6-0.3,1.2-0.6,1.7-0.9c0.6-0.3,1.2-0.6,1.7-0.9c0.6-0.3,1.1-0.6,1.7-1
			c0.6-0.3,1.1-0.7,1.7-1c1.1-0.7,2.2-1.4,3.3-2.2c0.5-0.4,1.1-0.8,1.6-1.2c0.5-0.4,1.1-0.8,1.6-1.2c0.4-0.3,0.2-0.9-0.2-0.8
			c-2.5,0.4-4.9,0.1-7-0.7c-2.6-0.9-4.9-2.5-7.1-4c-2-1.3-4.1-2.6-6.3-3.8c-2.2-1.2-4.4-2.3-6.7-3.2c-1.2-0.4-2.4-0.9-3.6-1.2
			c-0.6-0.2-1.2-0.3-1.9-0.5c-0.6-0.1-1.3-0.3-1.9-0.4c-2.6-0.4-5.2-0.6-8.1-0.5c-7.2,0.4-14.9,3.2-22.2,7.5
			c-0.9,0.6-1.8,1.1-2.7,1.7c-0.9,0.6-1.8,1.2-2.7,1.9c-0.9,0.6-1.8,1.3-2.6,2c-0.9,0.7-1.7,1.4-2.6,2.1c-0.5,0.4-1,0.9-1.4,1.3
			c5.7-7.3,12-14.1,18.7-20.5c0.7-0.4,1.4-0.7,2.2-1c0.7-0.3,1.5-0.4,2.2-0.6c1.6-0.3,3.1-0.2,4.5-0.1c0.7,0.1,1.4,0.2,2.2,0.3
			c0.7,0.1,1.4,0.2,2.2,0.3c1.4,0.2,3,0.3,4.5,0.2c0.8-0.1,1.5-0.2,2.3-0.3c0.8-0.2,1.6-0.4,2.4-0.8c1-0.5,2-1,3-1.7
			c0.5-0.3,1-0.7,1.4-1.1c0.5-0.4,0.9-0.7,1.4-1.1c0.5-0.4,0.4-1,0-1.1c-2-0.3-3.3-2.2-5.2-3.1c-0.8-0.4-1.8-0.6-2.9-0.6
			c-1.1,0-2.2,0.1-3.3,0.3c-0.8,0.2-1.7,0.4-2.5,0.6c-0.8,0.3-1.7,0.5-2.5,0.9c-1.7,0.7-3.3,1.6-5,2.5c2.4-2.1,4.9-4.2,7.4-6.1
			c2.5-2,5.1-3.9,7.6-5.8c2.7-1,5.4-1.6,7.6-1.2c3.1,0.6,4.9,3.1,7,5c2,1.9,4.4,3.4,6.9,4.7c1.3,0.6,2.6,1.2,3.9,1.8
			c1.3,0.6,2.7,1.1,4.1,1.6c1.7,0.6,3.4,1.3,5.2,1.7c0.9,0.2,1.8,0.4,2.7,0.6c0.9,0.2,1.9,0.3,2.9,0.3c1.3,0.1,2.6,0,3.9-0.2
			c1.3-0.2,2.7-0.4,4-0.8c0.7-0.2,1.4-0.4,2-0.6c0.3-0.1,0.7-0.2,1-0.3c0.3-0.1,0.7-0.2,1-0.4c1.4-0.5,2.7-1.1,4-1.7
			c0.3-0.1,0.6-0.3,0.9-0.4c0.3-0.2,0.6-0.3,0.9-0.5c0.6-0.3,1.2-0.6,1.7-1c1.2-0.7,2.3-1.4,3.4-2.1c2.2-1.5,4.4-3.1,6.5-4.8
			c0.5-0.4,0.4-1-0.2-1c-3.5,0-6.7-0.7-9.8-1.7c-3.1-1-6-2.4-8.9-3.7c-2.9-1.3-5.9-2.7-9-3.6c-3.1-0.9-6.5-1.5-10.1-1.3
			c-0.6,0-2,0.3-3.9,0.6c-1.9,0.4-4.3,0.9-6.7,1.4c-2.5,0.5-5,1-7.3,1.4c-2.3,0.4-4.3,0.7-5.7,0.7c1.4-0.9,2.7-1.8,4.1-2.7
			c1.4-0.9,2.8-1.7,4.2-2.6c1.2-0.5,2.4-0.9,3.6-1.3c1.2-0.4,2.4-0.7,3.6-1c2.4-0.6,4.8-1,7.2-1.3c4.8-0.6,9.5-0.7,14-0.7
			c8.5,0,18-0.9,27.4-3.1c2.7-0.6,5.4-1.3,8.1-2.2c6.7-2,13.3-4.8,19.4-8.4C433.9,155.5,433.7,154.7,432.9,154.8z M341.7,165.6
			c0.5-0.8,1-1.6,1.5-2.4l1.5-2.4c0.9-1.5,1.8-2.9,2.6-4.4c0.8-1.5,1.6-2.9,2.4-4.4c0.4-0.7,0.7-1.5,1.1-2.2c0.4-0.7,0.7-1.5,1-2.2
			c0.7-1.5,1.3-3,1.8-4.4c0.6-1.7,1.1-3.4,1.8-5.1c0.7-1.7,1.5-3.4,2.9-5c0.1-0.1,0.2-0.1,0.2,0c0.1,0.5,0.2,1,0.2,1.6
			c0.1,2.2-0.2,4.5-0.9,6.8c-0.6,2.3-1.6,4.5-2.8,6.8c-1.2,2.3-2.6,4.5-4.2,6.8c-0.8,1.1-1.6,2.2-2.5,3.3c-0.9,1.1-1.7,2.2-2.6,3.3
			c-0.6,0.7-1.2,1.4-1.9,2.1c-0.6,0.7-1.3,1.4-1.8,2.1C341.8,166,341.5,165.9,341.7,165.6z M261.6,245.5c0,0.1-0.1,0.5-0.2,0.9
			c-0.1,0.4-0.3,1-0.4,1.5c-0.3,1.1-0.5,2.3-0.6,2.9c0,0.1,0,0.2,0,0.3c0,0,0-0.1,0-0.3c-0.1-1.3-0.3-2.5-0.6-3.6
			c-0.2-0.6-0.3-1.1-0.5-1.7c-0.2-0.5-0.4-1.1-0.5-1.6c-0.8-2.1-1.7-4.2-2.3-6.4c-0.2-0.6-0.4-1.3-0.5-2c-0.1-0.7-0.2-1.3-0.3-2
			c-0.2-1.4-0.2-2.9-0.2-4.4c0-2.4,0.5-5,1.9-7.4c-0.1,3.7,0.7,6.8,1.7,9.9c0.5,1.5,1,3,1.4,4.6c0.4,1.6,0.8,3.1,1,4.9
			C261.7,242.5,261.8,243.8,261.6,245.5z M283.3,254.1c0.2-0.2,0.4-0.4,0.7-0.5c0.2-0.2,0.5-0.3,0.7-0.5c0.5-0.3,0.9-0.6,1.4-0.9
			c0.9-0.6,1.9-1.2,2.8-1.7c0.3-0.2,0.5-0.4,0.8-0.6c0.3-0.2,0.5-0.4,0.8-0.6c0.5-0.4,1.1-0.7,1.6-1c1.1-0.6,2.1-1.1,3.1-1.4
			c0.3-0.1,0.5-0.2,0.8-0.2c0.3-0.1,0.5-0.1,0.8-0.2c0.5-0.1,1-0.2,1.5-0.3c1-0.1,2-0.2,3-0.2c2,0.1,3.8,0.4,5.6,1
			c1.8,0.6,3.6,1.3,5.3,2.1c0.8,0.2,1.6,0.3,2.4,0.4c1.6,0.2,3.2,0.4,4.8,0.3c-1,0.3-2,0.5-3,0.6c-1,0.2-2,0.3-3,0.4
			c-0.6,0-1.1,0-1.7-0.1c-0.5,0-1.1-0.1-1.6-0.1c-1.1-0.1-2.2-0.1-3.3-0.2c-1.1-0.1-2.2-0.1-3.3-0.2c-0.6,0-1.1,0-1.7,0l-0.8,0
			c-0.3,0-0.6,0-0.8,0c-2.2,0-4.4,0.2-6.8,0.6c-0.6,0.1-1.2,0.2-1.7,0.4c-0.6,0.1-1.1,0.3-1.7,0.5c-1.2,0.4-2.3,0.8-3.5,1.3
			c-0.5,0.2-1,0.4-1.5,0.6c-0.3,0.1-0.5,0.2-0.8,0.3C283.8,253.9,283.5,254,283.3,254.1L283.3,254.1z M283.6,226.3
			c-0.2,0.9-0.5,1.8-0.8,2.6c-0.3,0.9-0.6,1.8-1,2.7c-0.1,0.3-0.3,0.6-0.4,0.9c0.5-1.6,0.7-3.2,0.4-4.5c-0.4-1.9-1.2-3.6-0.2-6.1
			c0.2-0.6,0.5-1.2,0.7-1.7c0.3-0.6,0.6-1.1,0.9-1.7c-0.1,1.1,0.2,1.9,0.4,2.9C283.8,222.8,284,224.6,283.6,226.3z M318.5,216.1
			c0.4-0.3,0.9-0.5,1.4-0.7c1-0.4,2-0.7,2.9-0.9c0.6-0.2,1.1-0.3,1.7-0.5c0.3-0.1,0.6-0.1,0.8-0.2c0.3-0.1,0.6-0.1,0.9-0.1
			c1.1-0.2,2.2-0.2,3.3-0.1c3.1,0.4,5.4,2.1,7.7,3.8c2.3,1.7,4.7,3.3,7.8,3.6c-1.3,0.3-2.6,0.6-3.8,0.8c-1.3,0.3-2.5,0.5-3.8,0.7
			c-1.3,0.2-2.5,0.2-3.7,0.2c-1.2,0-2.3-0.2-3.4-0.5c-1.9-0.6-3.6-1.7-5.3-2.6c-1.2-0.6-2.4-1-3.7-1.4c-1.3-0.4-2.5-0.7-3.8-1.1
			C317.7,216.7,318.1,216.4,318.5,216.1z M301.4,203.5c-0.2,0,0-0.9,0.3-1.8c0.1-0.5,0.3-0.9,0.4-1.3c0.1-0.4,0.2-0.7,0.2-0.7
			c0.4-1.3,0.7-2.6,1-3.9c0.2-0.7,0.3-1.5,0.5-2.2c0.2-1.3,0.4-2.5,0.4-3.7c0-1.2,0-2.3-0.1-3.4c-0.3-2.2-0.9-4.2-1.9-5.9
			c-0.5-0.9-1.2-1.7-1.9-2.5c-0.9-1.1-4.7-5.2-4.1-7c0-0.1,0.1-0.2,0.2-0.3c0.1,0,0.9,0.7,1.8,1.6c1,0.9,2.1,2,2.8,2.6
			c2.2,2.1,5,4,6,7c0.4,1.3,0.6,2.8,0.6,4.5c0,1.7-0.2,3.5-0.7,5.3c-0.2,0.9-0.5,1.9-0.8,2.8c-0.3,1-0.7,1.9-1.1,2.9
			c-0.8,1.9-1.9,3.8-3.1,5.6C301.7,203.2,301.5,203.4,301.4,203.5z M322.1,196.9c0.9-0.5,1.8-1,2.7-1.4c0.8-0.4,1.6-0.6,2.4-0.8
			c0.8-0.2,1.6-0.3,2.4-0.3c1.5,0,2.9,0.4,3.9,1.2c0.1,0.1,0.3,0.3,0.3,0.4c0,0-0.1,0.1-0.3,0.1c-0.2,0-0.5-0.1-0.7-0.1
			c-1.7-0.1-3.5,0.1-5.3,0.2c-0.8,0.1-1.6,0.1-2.4,0.2c-0.8,0.1-1.6,0.2-2.5,0.4c-0.3,0.1-0.6,0.1-0.8,0.1
			C321.9,197,322,197,322.1,196.9z M366.3,185.5c1-0.1,2-0.2,3-0.3c2-0.2,3.9-0.4,5.6,0.3c0.1,0,0.2,0.1,0.3,0.1
			c2.7,1.2,4.5,3.9,7.9,4.1c-0.7,0.2-1.4,0.3-2.1,0.5c-0.4,0.1-0.7,0.1-1.1,0.2c-0.3,0.1-0.7,0.1-1,0.2c-1.4,0.2-2.7,0.2-3.9-0.1
			c-2.1-0.6-3.8-1.7-5.6-2.6c-1.8-1-3.6-1.9-6-2.2C364.4,185.6,365.4,185.6,366.3,185.5z M406,160.2c-7.5,3-15.1,4.5-21.5,3.9
			c-1.3-0.1-2.6-0.3-3.9-0.4c-0.8-0.1-1.7-0.1-2.6-0.1c-0.4,0-0.9,0.1-1.3,0.1c-0.2,0-0.5,0.1-0.7,0.1c-0.1,0-0.6,0.2-0.7,0.1
			c-0.1-0.1,1.1-0.8,1.3-0.9c2-1.2,4-2.5,6.2-3.3c1.3-0.5,2.7-0.9,4.1-1.1c1.4-0.2,2.8-0.4,4.2-0.4c2.8-0.1,5.5,0.2,7.9,0.6
			c0.9,0.1,1.7,0.3,2.5,0.5c0.9,0.2,1.8,0.3,2.8,0.5c0.4,0.1,1.2,0.2,1.8,0.2C406.1,160,406.1,160.2,406,160.2z"/>
	</g>
	<path class="st2" d="M299.8,167.8c0.4-1.4,1-3.3,0-3c-0.5,0.1-1.8,1-10,8.2c-0.2,0.1-0.3,0.3-0.4,0.4c-0.1-0.1-0.1-0.1-0.2-0.2
		l-0.2-0.2c-0.4-0.6-0.9-1.9-1.4-3.6c-0.4-1.6-0.7-3.2-0.8-4.4l-0.1-1.8l1.6-1.5c7.2-6.6,11.2-10.2,10.3-13.5
		c-0.1-0.5-0.4-0.8-0.6-1.3c-1-1.2-2.9-1.6-5-1l-1.1,0.3c-6.9,2.6-8.2,9.5-9.1,14.4l-0.1,0.7c-4.1,3.5-13.4,11.8-16.6,15.6
		c-0.5,0.6-4.6,5.7-3.8,8.7c0.2,0.6,0.5,1,0.9,1.4c1.1,1.1,2.6,1.7,4.6,1.7c1.1,0,2.3-0.2,3.7-0.5c5.8-1.5,13.1-6.2,17.7-9.8
		c2.4,0.9,4.3,1.6,5.5,1.3c1.2-0.3,1.4-1.6,1.2-2.4c-0.2-0.9-0.9-1.2-3.1-1.8C295.7,173,299.7,168.4,299.8,167.8z M287.6,157
		c0.5-1.3,1.1-2.9,1.6-3.7c1.3-1.9,2-2.5,4.1-3.3l1-0.3c0.1,0,0.1,0,0.2,0C293.6,151.2,289.8,155.1,287.6,157z M286.2,175.8
		c-2.7,2.2-9.6,7-15.2,8.5c-2.6,0.7-4.3,0.5-4.8,0.2c-0.1-3.1,13.4-15.5,16.6-18.2c0,0,0,0.1,0,0.1c0.3,1,0.6,2.5,0.9,3.6
		c0.2,0.7,0.3,1.3,0.3,1.5c0.5,1.9,0.9,2.5,2,4L286.2,175.8z"/>
	<g>
		<path class="st0" d="M104.2,359.7h-8l-4.8-24.9l-9.3,25.5h-2.9l-9.3-25.5l-5,24.9H57l9.3-46.3h4.4l10,31.2l9.8-31.2h4.3
			L104.2,359.7z"/>
		<path class="st0" d="M106.6,342.7c0-5.2,1.5-9.4,4.5-12.6c3-3.2,6.9-4.9,11.8-4.9c5.1,0,9.1,1.6,12,4.7c2.8,3.1,4.3,7.4,4.3,12.8
			c0,5.4-1.4,9.7-4.3,12.8c-2.9,3.2-6.9,4.8-11.9,4.8c-5.1,0-9.1-1.6-12-4.8C108,352.3,106.6,348.1,106.6,342.7z M114.8,342.7
			c0,7.4,2.7,11.2,8,11.2c2.5,0,4.4-1,5.9-2.9c1.4-1.9,2.2-4.7,2.2-8.3c0-7.3-2.7-11-8-11c-2.5,0-4.4,1-5.9,2.9
			C115.5,336.6,114.8,339.3,114.8,342.7z"/>
		<path class="st0" d="M146.7,313.3l7.9-1.9v38c0,4.2,1.2,6.6,3.7,7.4c-1.2,2.3-3.3,3.5-6.2,3.5c-3.6,0-5.4-2.5-5.4-7.4V313.3z"/>
		<path class="st0" d="M165.8,313.3l7.9-1.9v38c0,4.2,1.2,6.6,3.7,7.4c-1.2,2.3-3.3,3.5-6.2,3.5c-3.6,0-5.4-2.5-5.4-7.4V313.3z"/>
		<path class="st0" d="M198.4,365.1c-0.8,2.3-2.6,4.1-5.4,5.6c-2.8,1.5-6,2.2-9.7,2.2v-7c6.1,0,9.1-1.5,9.1-4.6c0-2-0.8-5.1-2.5-9.3
			l-10.6-26.2h8.2l9.2,23.4l8.3-23.4h8.2L198.4,365.1z"/>
		<path class="st0" d="M311.2,320.8v10.8h15.3v7h-15.3v13.9h21v7.3H303v-46.2h29.5v7.3H311.2z"/>
		<path class="st0" d="M361.1,359.7v-2.1c-0.7,0.7-1.8,1.3-3.3,1.9c-1.6,0.5-3.2,0.8-4.8,0.8c-4.7,0-8.4-1.5-11.1-4.5
			c-2.7-3-4.1-7.2-4.1-12.5c0-5.3,1.6-9.7,4.7-13.1c3.1-3.4,7-5,11.7-5c2.6,0,4.9,0.5,7,1.6v-13.5l7.9-1.9v48.3H361.1z M361.1,334
			c-1.7-1.3-3.4-2-5.3-2c-3.2,0-5.6,1-7.3,2.9c-1.7,1.9-2.6,4.7-2.6,8.3c0,7,3.4,10.5,10.2,10.5c0.8,0,1.7-0.2,2.8-0.7
			c1.1-0.5,1.8-0.9,2.2-1.4V334z"/>
		<path class="st0" d="M394.6,357.2l3-7.4c3.2,2.3,6.4,3.4,9.6,3.4c4.8,0,7.2-1.7,7.2-5.1c0-1.6-0.6-3.1-1.7-4.5
			c-1.1-1.4-3.5-3-7-4.8c-3.5-1.8-5.9-3.2-7.2-4.4c-1.2-1.1-2.2-2.5-2.8-4.1c-0.7-1.6-1-3.3-1-5.2c0-3.6,1.3-6.5,3.9-8.9
			c2.6-2.4,6-3.5,10.1-3.5c5.3,0,9.3,1,11.8,3l-2.5,7.1c-2.9-2.1-5.9-3.1-9.1-3.1c-1.9,0-3.4,0.5-4.4,1.5c-1,1-1.6,2.3-1.6,3.9
			c0,2.7,2.9,5.4,8.8,8.3c3.1,1.5,5.3,2.9,6.7,4.2c1.4,1.3,2.4,2.8,3.1,4.5c0.7,1.7,1.1,3.6,1.1,5.7c0,3.7-1.5,6.8-4.4,9.2
			c-3,2.4-6.9,3.6-11.9,3.6C402,360.5,398.1,359.4,394.6,357.2z"/>
		<path class="st0" d="M451.3,359.7v-20.8c0-2.1-0.7-3.8-2-5c-1.3-1.3-3-1.9-5.1-1.9c-1.3,0-2.6,0.4-3.9,1.1
			c-1.3,0.7-2.3,1.5-2.8,2.4v24.3h-8v-46.4l8-1.9v16.6c2-1.9,4.8-2.8,8.4-2.8c4.2,0,7.5,1.2,9.8,3.5c2.3,2.3,3.5,5.7,3.5,10.1v20.8
			H451.3z"/>
		<path class="st0" d="M469.8,359.7v-27.3h-4.3v-6.5h12.3v33.8H469.8z M473.9,312.8c1.3,0,2.3,0.4,3.2,1.3c0.9,0.9,1.3,2,1.3,3.2
			c0,1.3-0.4,2.3-1.3,3.2c-0.9,0.9-2,1.3-3.2,1.3c-1.3,0-2.3-0.4-3.2-1.3c-0.9-0.9-1.3-2-1.3-3.2c0-1.3,0.4-2.3,1.3-3.2
			C471.6,313.3,472.6,312.8,473.9,312.8z"/>
		<path class="st0" d="M488.4,313.3l7.9-1.9v38c0,4.2,1.2,6.6,3.7,7.4c-1.2,2.3-3.3,3.5-6.2,3.5c-3.6,0-5.4-2.5-5.4-7.4V313.3z"/>
		<path class="st0" d="M507.4,313.3l7.9-1.9v38c0,4.2,1.2,6.6,3.7,7.4c-1.2,2.3-3.3,3.5-6.2,3.5c-3.6,0-5.4-2.5-5.4-7.4V313.3z"/>
	</g>
	<g>
		<path class="st0" d="M164.9,385.7c-1.2-0.8-2.5-1.3-3.9-1.3c-2.3,0-4.3,1.1-5.8,3.3c-1.6,2.2-2.4,4.7-2.4,7.4
			c0,1.7,0.4,3.1,1.3,4.2c0.9,1,2,1.6,3.6,1.6c2.4,0,4.2-0.6,5.6-1.9l-0.1,3.5c-1.5,1.3-3.6,1.9-6.3,1.9c-2.5,0-4.4-0.8-5.9-2.4
			c-1.5-1.6-2.3-3.7-2.3-6.3c0-4.2,1.2-7.7,3.5-10.5c2.3-2.8,5.3-4.2,9.1-4.2c1.8,0,3.4,0.3,4.9,0.9L164.9,385.7z"/>
		<path class="st0" d="M183.2,398.1c-0.1,0.4-0.1,0.8-0.1,1.3c0,2.3,0.2,3.8,0.5,4.7h-2.4c-0.7,0-1.3-0.6-1.6-1.7
			c-1.3,1.3-3,2-4.9,2c-1.8,0-3.2-0.5-4.2-1.5c-1-1-1.5-2.4-1.5-4.2c0-3.1,1-5.8,2.9-8.1c1.9-2.2,4.3-3.4,7.2-3.4
			c2.8,0,4.8,0.3,6,0.8L183.2,398.1z M178.7,390.3c-1.7,0-3.1,0.8-4.1,2.5c-1,1.7-1.5,3.6-1.5,5.7c0,1.8,0.9,2.7,2.6,2.7
			c1.1,0,2.1-0.7,2.9-2.1c0.8-1.4,1.6-4.2,2.2-8.5C180.1,390.4,179.4,390.3,178.7,390.3z"/>
		<path class="st0" d="M201.7,391.4c-0.9-0.7-1.7-1-2.4-1c-1,0-1.9,0.4-2.7,1.3c-0.8,0.9-1.4,1.9-1.6,3l-1.7,9.4h-3.9l3.1-16.6h3.9
			l-0.3,1.4c1.4-1.2,2.9-1.7,4.5-1.7c0.4,0,1.2,0.1,2.3,0.3L201.7,391.4z"/>
		<path class="st0" d="M209.3,396.8c0,0.3,0,0.5,0,0.7c0,1.2,0.3,2,1,2.7c0.7,0.6,1.6,0.9,2.9,0.9c0.6,0,1.4-0.2,2.2-0.5
			c0.8-0.4,1.5-0.8,2-1.2l-0.4,4.1c-1.3,0.6-2.9,0.9-4.8,0.9c-2,0-3.7-0.6-5-1.9s-1.9-3.1-1.9-5.3c0-2.8,0.9-5.2,2.7-7.1
			c1.8-1.9,4.2-2.8,7.2-2.8c1.7,0,3.2,0.4,4.2,1.1c1.1,0.7,1.6,1.8,1.6,3.2c0,1.9-0.8,3.3-2.4,4.4c-1.6,1.1-3.6,1.6-6,1.6
			C211.5,397.4,210.4,397.2,209.3,396.8z M210,393.9c0.7,0.2,1.4,0.3,2.2,0.3c1.4,0,2.6-0.2,3.6-0.6c1-0.4,1.5-1,1.5-1.8
			c0-0.9-1-1.3-2.9-1.3c-0.8,0-1.6,0.3-2.4,1C211.1,392,210.5,392.9,210,393.9z"/>
		<path class="st0" d="M235.3,392c-1.2-1.1-2.4-1.6-3.4-1.6c-0.6,0-1.2,0.1-1.7,0.4c-0.5,0.3-0.7,0.7-0.7,1.2c0,0.6,0.6,1.2,1.7,1.8
			c1.1,0.6,2,1,2.6,1.4c0.6,0.3,1.1,0.8,1.5,1.4c0.4,0.6,0.6,1.2,0.6,2c0,1.8-0.7,3.3-2,4.3c-1.4,1.1-3.1,1.6-5.2,1.6
			c-1.8,0-3.6-0.5-5.3-1.5l2-3.5c1.3,1.2,2.6,1.8,3.8,1.8c0.8,0,1.4-0.2,1.9-0.6c0.5-0.4,0.8-0.9,0.8-1.6c0-0.6-0.5-1.1-1.5-1.6
			c-1-0.5-1.8-1-2.6-1.4c-0.7-0.4-1.3-0.9-1.7-1.5c-0.4-0.6-0.6-1.3-0.6-2c0-1.6,0.6-2.9,1.9-3.8c1.3-1,2.9-1.4,4.7-1.4
			c1.3,0,2.9,0.4,5,1.3L235.3,392z"/>
		<path class="st0" d="M269.5,384.9h-10.9l-0.9,5.2h8l-0.6,3.4h-8l-1.9,10.5h-4.1l4.2-22.7h15L269.5,384.9z"/>
		<path class="st0" d="M271.5,397.8c0-3,0.9-5.5,2.7-7.6c1.8-2.1,4.1-3.1,6.9-3.1c2.1,0,3.8,0.6,4.9,1.7c1.2,1.1,1.7,2.7,1.7,4.7
			c0,3.1-0.9,5.6-2.7,7.7c-1.8,2.1-4.1,3.1-7,3.1c-2.1,0-3.7-0.6-4.9-1.7C272.1,401.5,271.5,399.9,271.5,397.8z M275.6,397.6
			c0,2.4,1,3.5,3,3.5c1.6,0,2.9-0.7,3.8-2.2c0.9-1.5,1.4-3.3,1.4-5.3c0-2.2-1-3.3-3-3.3c-1.6,0-2.8,0.7-3.8,2.2
			C276,394,275.6,395.7,275.6,397.6z"/>
		<path class="st0" d="M304.4,404h-3.9l0.2-1.2c-1.4,1-3.1,1.5-5.2,1.5c-1.4,0-2.5-0.4-3.3-1.2c-0.8-0.8-1.2-1.9-1.2-3.4
			c0-0.5,0.1-1,0.2-1.6l2-10.7h3.9l-2,10.5c-0.1,0.4-0.1,0.8-0.1,1.1c0,1.3,0.8,2,2.3,2c1.2,0,2.3-0.4,3.1-1.2
			c0.8-0.8,1.3-1.8,1.6-2.9l1.7-9.6h3.9L304.4,404z"/>
		<path class="st0" d="M323.9,404h-4l1.8-9.7c0.1-0.8,0.2-1.4,0.2-1.9c0-1.4-0.8-2.1-2.4-2.1c-1.4,0-2.6,0.6-3.7,1.7l-2.2,11.9h-3.9
			l2.3-12.4c0-0.2,0.1-0.5,0.1-0.9c0-0.9-0.1-1.9-0.4-2.9l3.8-0.7l0.4,1.9c1.4-1.2,3.1-1.8,5.1-1.8c3.4,0,5.1,1.6,5.1,4.8
			c0,0.6-0.1,1.2-0.2,2L323.9,404z"/>
		<path class="st0" d="M343.7,404h-3.9l0.3-1.5c-0.9,1.2-2.3,1.9-4.3,1.9c-1.9,0-3.5-0.6-4.5-1.7c-1.1-1.1-1.6-2.7-1.6-4.6
			c0-3.2,0.9-5.8,2.6-7.8c1.8-2,4.1-3,7-3c0.6,0,1.2,0.1,1.9,0.3c0.7,0.2,1.2,0.5,1.5,0.7l1.4-7.5h3.7L343.7,404z M339.6,390.4
			c-1.8,0-3.2,0.7-4.3,2c-1.1,1.3-1.6,3-1.6,5c0,2.5,1,3.8,3.1,3.8c2.2,0,3.7-1.8,4.4-5.4l0.7-4
			C341.5,390.9,340.7,390.4,339.6,390.4z"/>
		<path class="st0" d="M364.3,398.1c-0.1,0.4-0.1,0.8-0.1,1.3c0,2.3,0.2,3.8,0.5,4.7h-2.4c-0.7,0-1.3-0.6-1.6-1.7
			c-1.3,1.3-3,2-4.9,2c-1.8,0-3.2-0.5-4.2-1.5c-1-1-1.5-2.4-1.5-4.2c0-3.1,1-5.8,2.9-8.1c1.9-2.2,4.3-3.4,7.2-3.4
			c2.8,0,4.8,0.3,6,0.8L364.3,398.1z M359.9,390.3c-1.7,0-3.1,0.8-4.1,2.5c-1,1.7-1.5,3.6-1.5,5.7c0,1.8,0.9,2.7,2.6,2.7
			c1.1,0,2.1-0.7,2.9-2.1c0.8-1.4,1.6-4.2,2.2-8.5C361.2,390.4,360.5,390.3,359.9,390.3z"/>
		<path class="st0" d="M382.4,390.6h-4.6l-1.7,7.3c-0.1,0.6-0.2,1.1-0.2,1.5c0,1.1,0.6,1.7,1.9,1.7c0.6,0,1.5-0.3,2.8-0.8v3.5
			c-1.1,0.4-2.6,0.6-4.5,0.6c-1.3,0-2.3-0.4-3-1.2s-1.1-1.8-1.1-3.1c0-0.4,0-0.8,0.1-1.2l1.9-8.3h-1.9l0.7-3.1h1.9l0.6-3.4l4.4-1.6
			l-1.2,5h4.5L382.4,390.6z"/>
		<path class="st0" d="M391,404h-3.9l2.5-13.5h-2.1l0.6-3.1h6L391,404z M389.9,382.1c0-0.7,0.2-1.3,0.7-1.7c0.5-0.5,1.1-0.7,1.8-0.7
			c0.7,0,1.3,0.2,1.8,0.7c0.5,0.5,0.7,1,0.7,1.7c0,0.7-0.2,1.3-0.7,1.7c-0.5,0.5-1.1,0.7-1.8,0.7c-0.7,0-1.3-0.2-1.8-0.7
			S389.9,382.8,389.9,382.1z"/>
		<path class="st0" d="M397.9,397.8c0-3,0.9-5.5,2.7-7.6c1.8-2.1,4.1-3.1,6.9-3.1c2.1,0,3.8,0.6,4.9,1.7c1.2,1.1,1.7,2.7,1.7,4.7
			c0,3.1-0.9,5.6-2.7,7.7c-1.8,2.1-4.1,3.1-7,3.1c-2.1,0-3.7-0.6-4.9-1.7C398.5,401.5,397.9,399.9,397.9,397.8z M401.9,397.6
			c0,2.4,1,3.5,3,3.5c1.6,0,2.9-0.7,3.8-2.2c0.9-1.5,1.4-3.3,1.4-5.3c0-2.2-1-3.3-3-3.3c-1.6,0-2.8,0.7-3.8,2.2
			C402.4,394,401.9,395.7,401.9,397.6z"/>
		<path class="st0" d="M431.1,404h-4l1.8-9.7c0.1-0.8,0.2-1.4,0.2-1.9c0-1.4-0.8-2.1-2.4-2.1c-1.4,0-2.6,0.6-3.7,1.7l-2.2,11.9h-3.9
			l2.3-12.4c0-0.2,0.1-0.5,0.1-0.9c0-0.9-0.1-1.9-0.4-2.9l3.8-0.7l0.4,1.9c1.4-1.2,3.1-1.8,5.1-1.8c3.4,0,5.1,1.6,5.1,4.8
			c0,0.6-0.1,1.2-0.2,2L431.1,404z"/>
	</g>
	<path class="st0" d="M275.1,339.6c0.5-0.7,0-1.7-0.8-1.7h-9c-0.8,1,1.8,2.1,1,3.1c-2.7,3.5-3.7,5.1-4.8,6.1
		c-3.7-4.7-6.6-8.4-8.7-11.2l-3.7-5.1c-1.3-1.7-2.3-3.1-2.9-4.3c-0.6-1.2-1-2.4-1-3.4c0-1.6,0.5-2.9,1.5-3.7c1-0.9,2.1-1.3,3.4-1.3
		c1.4,0,2.5,0.4,3.3,1.2c0.6,0.6,1,1.4,1.1,2.3l-0.7,2.1l7.1-2.1c-0.1-1.5-0.5-2.9-1.2-4.2c-0.9-1.5-2.1-2.7-3.7-3.6
		c-1.6-0.9-3.5-1.3-5.7-1.3c-2.1,0-4,0.4-5.7,1.3c-1.7,0.9-3.1,2.1-4.1,3.7s-1.5,3.5-1.5,5.6c0,1.9,0.4,3.6,1.1,5.2
		c0.7,1.5,2,3.5,3.9,5.9c-2.8,2-5,4-6.5,6c-1.5,2-2.2,4.3-2.2,6.8c0,3,0.7,5.4,2,7.5c1.4,2,3.1,3.5,5.3,4.5c2.2,1,4.5,1.5,7,1.5
		c4.2,0,8.1-1.4,11.7-4.1l2.6,3.1h7.5c-1.9-2.3-3.9-4.8-6-7.4C266.9,350.6,272.5,343,275.1,339.6z M253.3,353.6
		c-1.1,0.4-2.2,0.5-3.3,0.5c-2.4,0-4.2-0.7-5.4-2c-1.2-1.3-1.9-3-1.9-5.1c0-1.5,0.4-2.8,1.1-3.9c0.7-1.1,2-2.4,3.9-3.8l3.4,4.3
		l6,7.5C255.7,352.5,254.4,353.3,253.3,353.6z"/>
	<g>
		<path class="st2" d="M228.5,120.5c-0.2,0.4-0.4,1-0.7,1.5c-2.1,4.6-4.5,9.6-7.1,14.8c-6.6,12.7-12.2,25.8-16.6,39
			c-0.2,0.6-0.3,1.1-0.3,1.6c0,0.4,0.1,0.7,0.2,1c0.2,0.6,0.6,1.1,1.2,1.6c1.2,1,2.5,1.9,3.8,2.5c0.7,0.3,1.2,0.4,1.8,0.3
			c0.5-0.2,1-0.5,1.5-1.2c0.8-0.9,1.9-2.4,3.3-4.5c0.3-0.4,0.6-0.9,0.9-1.3c8-11.5,17.8-23.6,29.1-35.9
			c11.3-12.3,22.6-22.9,33.5-31.3c0.6-0.4,0.8-0.5,0.8-0.5c0.2,0,0.3,0,0.2,0c-0.5,2-3.4,8.5-8.8,19.4c-5.3,10.8-11.4,22.9-18,36.1
			c-4.8,9.6-9.2,18.3-12.9,25.8c-3.7,7.5-6.2,12.7-7.4,15.4c-0.2,0.5-0.2,0.9-0.2,1.2c0,0.4,0.1,0.8,0.3,1.1
			c0.3,0.5,0.8,0.9,1.3,1.1c0.5,0.3,1.1,0.5,1.9,0.8c0.8,0.3,1.4,0.4,1.9,0.4l0.2,0c0.5-0.1,0.9-0.4,1.4-0.9
			c0.4-0.4,0.8-1.2,1.3-2.2l43.9-88.2c0.7-1.4,1-2.6,1.2-3.7c0.1-1,0.2-1.9,0.2-2.6c0-0.3,0-0.6,0-0.8c-0.1-1.9-1-3.6-2.5-5.2
			c-1.5-1.6-3.1-2.4-4.8-2.4c-0.3,0-0.5,0-0.9,0.1c-5.5,1.7-12.7,6.9-21.6,15.6c-8.8,8.6-17.5,18-25.7,28
			c-6.9,8.4-12.4,15.3-16.1,20.6c1.2-3.3,3-7.4,5.2-12.2c3.1-6.7,6.4-13.5,9.6-20.1c2.7-5.5,4.8-10,6.4-13.4
			c0.3-0.8,0.5-1.6,0.5-2.5c0-0.7-0.1-1.5-0.3-2.3c-0.5-1.7-1.2-3.2-2.3-4.5c-1.1-1.3-2.2-2.1-3.3-2.3c-0.7-0.2-1.4,0-1.9,0.4
			c-0.5,0.3-1.1,0.8-1.7,1.6c-12,13.8-25,31.5-38.5,52.7c-8.2,12.8-15.4,24.9-21.8,36.3c1,3.2,2.1,6.4,3.3,9.6
			C187.7,180,207.3,149.7,228.5,120.5C228.4,120.6,228.4,120.6,228.5,120.5z"/>
		<path class="st2" d="M368.4,107.9l-0.6-0.6c-0.1-0.1-0.3-0.3-0.5-0.4c-0.3-0.2-0.5-0.4-0.8-0.5c-0.8-0.3-1.2-0.2-1.8,0.2
			c-0.7,0.4-1.7,1.6-3,3.4c-13,3.4-24.7,8-34.8,13.7c-2.8,1.6-4.6,3-5.7,4.2c-1,1-1.5,1.8-1.5,2.5c0,0.1,0,0.2,0.1,0.3
			c0.1,0.4,0.3,1.1,1.5,1.1c0.2,0,0.3,0,0.6-0.1c0.8-0.2,2.1-0.7,4-1.6c0.4-0.2,0.9-0.4,1.4-0.6c9.7-4.4,19.5-8.2,29.1-11.3
			c-10.1,14.8-20.2,30.5-30.1,46.7c-4.8,1.2-9,2.4-12.4,3.6c-2.4,0.9-4.1,1.6-5.3,2.1c-0.6,0.3-1.1,0.6-1.5,0.9
			c-0.4,0.3-0.7,0.8-0.8,1.3c0,0.2-0.1,0.3-0.1,0.5c0,0.4,0.1,0.8,0.2,1.2c0.2,0.6,0.4,1.1,0.6,1.6c0.4,0.9,0.9,1.4,1.3,1.5
			c0.1,0,0.3,0.1,0.5,0.1l0.3,0c0.2,0,0.5-0.1,1-0.3c0.3-0.1,0.7-0.3,1.2-0.4c0.8-0.3,1.8-0.7,3.1-1.1c2.1-0.7,4.4-1.5,6.9-2.3
			c-8,13.6-15.1,27.2-21,40.5c-1.6,3.7-2.6,6.4-3,7.9c-0.2,0.7-0.4,1.3-0.4,1.8v0.1c0,0.6,0.2,1.1,0.7,1.6c0.4,0.5,0.9,0.9,1.5,1.5
			c0.6,0.5,1.2,1,1.8,1.4l0.2,0.1c0.5,0.4,0.9,0.7,1.3,0.8c0.4,0.1,0.6,0.2,0.8,0.2c0.4,0,0.8-0.2,1.3-0.5
			c9.4-6.3,22.5-12.7,38.9-18.9c16.4-6.2,32-9.7,46.4-10.4c2.1,0,2.4-0.2,2.5-0.3c0.1-0.1,0.5-0.3,0.5-0.7c0-0.3-0.2-0.6-0.6-0.8
			c-0.4-0.2-1-0.5-1.8-0.7c-0.7-0.2-1.4-0.4-2.1-0.5c-2.9-0.4-5.9-0.5-8.9-0.5c-10.1,0-21.5,1.9-34,5.7
			c-16.2,4.9-29.5,10.9-39.6,17.9c0.1-0.1,0.2-0.3,0.2-0.4c0.4-0.8,1-1.8,1.6-3.1c7.5-15.7,15.9-31.2,25-46.1
			c6.6-1.7,13.2-3.2,19.6-4.4c6.4-1.2,12-1.8,16.4-1.9c1.3,0,2.5,0,3.5,0.1c0.8,0,1.4,0,1.9,0c0.5,0,1.6,0,1.6-0.8
			c0-0.3-0.2-0.5-0.3-0.6c-0.3-0.3-0.9-0.9-3.5-1.7c-4.1-1-9.6-1.3-15.9-0.9c-6,0.4-12.2,1.2-18.5,2.4c6.3-10.2,12.9-20.7,19.6-31.2
			c3.5-5.4,7-10.9,10.5-16.5c11.1-3,22.2-5.2,33-6.4c-0.8-1.6-1.7-3.2-2.5-4.8c-9,0.8-18.6,2.3-28.9,4.5
			C368.7,108.1,368.5,108,368.4,107.9z"/>
	</g>
</g>
</svg>
